<?xml version="1.0" standalone="no"?>
<!DOCTYPE svg PUBLIC "-//W3C//DTD SVG 1.1//EN" "http://www.w3.org/Graphics/SVG/1.1/DTD/svg11.dtd" >
<svg xmlns="http://www.w3.org/2000/svg">
<metadata>Generated by IcoMoon</metadata>
<defs>
<font id="icomoon" horiz-adv-x="1024">
<font-face units-per-em="1024" ascent="960" descent="-64" />
<missing-glyph horiz-adv-x="1024" />
<glyph unicode="&#x20;" horiz-adv-x="512" d="" />
<glyph unicode="&#xe900;" glyph-name="plus" d="M575.888 511.888v448.112h-127.775v-448.112h-448.112v-127.775h448.112v-448.112h127.775v448.112h448.112v127.775z" />
<glyph unicode="&#xe901;" glyph-name="minus" d="M885.333 448c-0.237-17.577-14.423-31.763-31.977-32h-682.69c-17.673 0-32 14.327-32 32s14.327 32 32 32v0h682.667c17.577-0.237 31.763-14.423 32-31.977v-0.023z" />
<glyph unicode="&#xe902;" glyph-name="down-arrow" d="M512 256c-8.184 0-16.376 3.128-22.624 9.376l-320 320c-12.504 12.504-12.504 32.752 0 45.248s32.752 12.504 45.248 0l297.376-297.376 297.376 297.376c12.504 12.504 32.752 12.504 45.248 0s12.504-32.752 0-45.248l-320-320c-6.248-6.248-14.44-9.376-22.624-9.376z" />
<glyph unicode="&#xe903;" glyph-name="search-interface-symbol" d="M1014.294-8.29l-264.38 260.155c69.233 75.219 111.771 174.698 111.771 284.164-0.033 234.168-192.91 423.971-430.854 423.971s-430.821-189.803-430.821-423.971 192.877-423.971 430.821-423.971c102.808 0 197.102 35.56 271.168 94.678l265.406-261.181c12.932-12.74 33.927-12.74 46.859 0 12.962 12.738 12.962 33.415 0.030 46.155zM430.831 177.289c-201.326 0-364.533 160.613-364.533 358.74s163.207 358.74 364.533 358.74c201.328 0 364.533-160.613 364.533-358.74s-163.205-358.74-364.533-358.74z" />
<glyph unicode="&#xe904;" glyph-name="phone-conversation" d="M259.46 241.22c48-49.9 99.52-88.22 152.6-112.62 98.68-45.5 140.38-52.26 168-52.26 32.98 0 56 4.1 91.68 24.2 16.32 9.3 45.34 28.74 56.22 54.52 14.58 34.54 20.22 72.66 12.8 86.8-4.94 9.4-14 14.46-26.66 21.44-5.82 2.98-91.18 52.18-113.88 62.38-12 5.16-34.52 14.8-53.62-10.64-10.48-14-41.62-46.74-51.8-57.12-3.84-4-5.42-5.56-16 0.5-32.56 17.34-65.14 30.36-118.48 82.48-52.14 53.38-65.060 85.86-82.48 118.46-6 10.58-4.42 12.16-0.48 16 10.36 10.16 43.16 41.3 57.1 51.78 25.44 19.1 15.8 41.56 10.64 53.62-9.52 21.36-60.7 110.58-62.36 113.86-7 12.62-12 21.74-21.48 26.7-14.12 7.4-52.22 1.76-86.76-12.82-44.9-20.22-78.68-92.34-78-131.28-1.72-28.62-3.88-64.22 51.64-184.62 24.18-52.6 61.68-103.6 111.32-151.38zM126.36 575.42c-1.1 28.74 26.38 89.34 59.8 105.46 29.76 12 47.54 14.12 61.52 13.52 17.28-27.28 58.78-103.020 69.84-125.46 5.52-12.84 4.9-13.3-1.080-17.8-16.48-12.38-51.58-46-60-54.32-19.84-19.42-12.1-39.18-4.54-52.38 16.62-31.54 32.4-68.58 87.3-124.76 56.26-54.98 93.14-70.52 124.76-87.28 13.18-7.56 32.94-15.3 52.34 4.54 8.32 8.48 42 43.58 54.36 60 4.48 6 4.94 6.6 17.78 1.080 22.36-11.020 98-52.48 125.48-69.84 0.82-6.18-0.4-30.4-13.54-61.52-12.64-30-73.36-58.56-96.66-59.36-39.38-1.5-56-6.84-179.020 48.46-49.82 22.88-98.7 59.36-144 106.7-47.18 45.3-82.7 93.36-105.42 142.74-52.36 113.52-50.46 144.96-48.92 170.22zM523.6 853.34c-78-74.6-94.62-200.58-38.72-292.48l-30.62-98.86c-0.425-1.326-0.67-2.85-0.67-4.432 0-8.284 6.716-15 15-15 1.537 0 3.020 0.231 4.416 0.661l-0.106-0.028 100.64 30.2c93.1-54.9 220.74-38.92 296.82 38 44.437 43.311 72 103.751 72 170.628 0 0.11 0 0.219 0 0.329v-0.017c0.36 215.36-267.18 321.32-418.76 171zM849.32 532.82c-68.16-69.44-184.14-81.72-266.14-30.16-2.229 1.388-4.934 2.21-7.832 2.21-2.32 0-4.518-0.528-6.478-1.469l0.090 0.039-77.7-23.32 23.58 76c0.941 1.904 1.491 4.145 1.491 6.515 0 2.978-0.869 5.752-2.367 8.085l0.036-0.060c-20.276 31.698-32.32 70.359-32.32 111.833 0 8.021 0.45 15.936 1.327 23.723l-0.087-0.955c18.16 176.32 242.28 251.22 366.4 126.74 83.42-78.82 83.44-220.4 0-299.18zM783.64 778.82h-177.64c-19.8-0.66-19.9-29.3 0-30h177.6c19.84 0.66 19.94 29.3 0.040 30zM783.64 695.58h-177.64c-19.8-0.66-19.9-29.3 0-30h177.6c19.84 0.68 19.94 29.32 0.040 30zM783.64 612.36h-177.64c-19.8-0.66-19.9-29.3 0-30h177.6c19.84 0.66 19.94 29.3 0.040 30z" />
<glyph unicode="&#xe905;" glyph-name="social-media-marketing" d="M192.648 267.252c0 7.732 6.268 14 14 14h338.468c7.732 0 14-6.268 14-14s-6.268-14-14-14h-338.468c-7.732 0-14 6.268-14 14zM206.648 357.044h247.26c7.732 0 14 6.268 14 14s-6.268 14-14 14h-247.26c-7.732 0-14-6.268-14-14s6.268-14 14-14zM779.69 152.55v-166.12c0-17.884-14.548-32.432-32.432-32.432h-223.136c-17.884 0-32.432 14.548-32.432 32.432v101.44c-37.148-8.63-76.014-13.010-115.808-13.010-16.496 0-33.076 0.772-49.364 2.296l-172.916-120.642c-2.406-1.678-5.208-2.518-8.010-2.518-2.738 0-5.474 0.8-7.846 2.406-4.798 3.248-7.102 9.116-5.792 14.76l34.714 149.544c-93.328 45.784-148.668 119.324-148.668 198.442 0 54.26 25.28 105.548 73.106 148.318 45.756 40.918 108.020 70.446 180.062 85.39 7.57 1.566 14.982-3.294 16.552-10.864 1.57-7.572-3.294-14.982-10.864-16.552-66.26-13.744-125.6-41.746-167.084-78.844-41.72-37.31-63.772-81.38-63.772-127.448 0-70.726 53.33-137.218 142.658-177.864 6.068-2.76 9.346-9.416 7.838-15.908l-29.026-125.042 147.268 102.748c2.758 1.924 6.112 2.786 9.458 2.444 16.998-1.766 34.386-2.662 51.686-2.662 39.936 0 78.834 4.652 115.808 13.808v35.88c0 17.884 14.548 32.432 32.432 32.432h110.048c46.206 38.168 71.594 85.652 71.594 134.166 0 51.836-28.722 102.088-80.876 141.498-6.168 4.662-7.39 13.44-2.73 19.61 4.662 6.168 13.44 7.39 19.61 2.728 59.324-44.828 91.996-103.012 91.996-163.836 0-47.988-20.53-94.62-58.462-134.166h71.954c17.884 0 32.434-14.55 32.434-32.434zM751.69 152.55c0 2.402-2.030 4.432-4.432 4.432h-223.136c-2.402 0-4.432-2.030-4.432-4.432v-166.12c0-2.402 2.030-4.432 4.432-4.432h223.136c2.402 0 4.432 2.030 4.432 4.432zM689.634 69.492c0-5.002-2.668-9.624-7-12.124l-79.888-46.122c-2.166-1.25-4.584-1.876-7-1.876s-4.834 0.624-7 1.876c-4.332 2.5-7 7.122-7 12.124v92.246c0 5.002 2.668 9.624 7 12.124 4.332 2.502 9.668 2.502 14 0l79.888-46.124c4.332-2.502 7-7.122 7-12.124zM647.634 69.492l-37.888 21.874v-43.748zM914.63 795.674c2.376 0 4.782 0.604 6.988 1.878l54.070 31.216c6.696 3.866 8.99 12.428 5.124 19.124-3.864 6.696-12.424 8.99-19.124 5.124l-54.070-31.216c-6.696-3.866-8.99-12.428-5.124-19.124 2.592-4.49 7.298-7.002 12.136-7.002zM824.508 858.838c2.206-1.274 4.612-1.878 6.988-1.878 4.838 0 9.544 2.51 12.136 7.002l32.93 57.036c3.866 6.696 1.572 15.258-5.124 19.124s-15.258 1.572-19.124-5.124l-32.93-57.036c-3.866-6.696-1.572-15.258 5.124-19.124zM912.14 707.058c0-7.732 6.268-14 14-14h65.86c7.732 0 14 6.268 14 14s-6.268 14-14 14h-65.86c-7.732 0-14-6.268-14-14zM319.010 553.414c7.444 27.786 25.178 50.958 49.938 65.252l73.228 42.278c3.214 1.858 7.038 2.362 10.624 1.4 1.416-0.38 2.744-0.982 3.954-1.76 75.256 56.322 134.596 121.526 168.59 185.346l-1.288 2.23c-15.864 27.476-6.416 62.736 21.060 78.602 27.48 15.862 62.738 6.414 78.602-21.060l57.128-98.948c30.344 15.698 68.102 4.864 85.358-25.028 17.256-29.89 7.76-68-21.004-86.436l57.128-98.948c7.662-13.27 9.684-28.77 5.698-43.65-3.988-14.878-13.49-27.292-26.76-34.954-8.822-5.094-18.63-7.696-28.586-7.696-5.020 0-10.076 0.662-15.062 1.998-14.878 3.986-27.292 13.49-34.952 26.758l-1.288 2.23c-71.632 2.452-156.912-15.99-242.562-52.368l101.084-136.064c10.088-13.58 8.318-32.33-4.118-43.614l-22.238-20.18c-6.024-5.464-13.878-8.466-21.936-8.466-1.036 0-2.074 0.050-3.112 0.15-9.014 0.87-17.284 5.518-22.688 12.754l-105.752 141.508-3.69-2.13c-16.456-9.5-34.758-14.354-53.34-14.354-9.376 0-18.822 1.236-28.14 3.732-27.786 7.444-50.958 25.18-65.252 49.938-14.296 24.76-18.068 53.696-10.624 81.48zM637.422 335.9l-98.63 132.762-34.318-19.814 103.764-138.848c0.904-1.212 2.102-1.562 2.948-1.644 0.758-0.072 2.22-0.016 3.542 1.184l22.236 20.178c1.748 1.586 1.942 4.186 0.458 6.182zM794.884 782.438l36.278-62.834c15.4 10.674 20.328 31.608 10.794 48.122-9.534 16.512-30.128 22.712-47.072 14.712zM648.304 862.16l178.608-309.36c3.922-6.792 10.296-11.662 17.952-13.712 7.654-2.048 15.608-1.022 22.402 2.9 6.792 3.92 11.662 10.296 13.714 17.95 2.050 7.654 1.020 15.61-2.9 22.402l-178.61 309.36c-5.464 9.466-15.416 14.764-25.632 14.764-5.008 0-10.080-1.272-14.72-3.952-6.792-3.92-11.662-10.296-13.712-17.95s-1.022-15.61 2.898-22.402zM472.108 637.102l71.8-124.364c83.972 36.176 168.208 55.846 241.196 56.476l-143.488 248.534c-37.038-62.894-96.192-126.012-169.508-180.646zM353.88 485.936c10.554-18.282 27.69-31.384 48.25-36.892 20.558-5.51 41.95-2.73 60.232 7.824l61.104 35.278-79.416 137.552-61.104-35.278c-18.282-10.554-31.382-27.69-36.892-48.25s-2.728-41.954 7.826-60.234zM94.806 780.156c0 46.888 38.146 85.036 85.036 85.036s85.036-38.146 85.036-85.036c0-46.888-38.146-85.034-85.036-85.034s-85.036 38.146-85.036 85.034zM122.806 780.156c0-31.45 25.586-57.034 57.036-57.034s57.036 25.584 57.036 57.034-25.586 57.036-57.036 57.036-57.036-25.586-57.036-57.036zM18 765.372v29.568c0 13.076 10.636 23.712 23.71 23.712 11.58 0 16.148 8.852 17.27 11.566 1.124 2.714 4.156 12.204-4.034 20.392-4.478 4.476-6.946 10.43-6.946 16.766 0 6.334 2.466 12.29 6.946 16.768l20.906 20.908c9.244 9.246 24.288 9.246 33.534 0 8.19-8.19 17.68-5.158 20.392-4.034 2.714 1.124 11.566 5.69 11.566 17.27 0 13.076 10.636 23.712 23.71 23.712h29.568c13.074 0 23.71-10.636 23.71-23.712 0-11.58 8.852-16.146 11.566-17.27 2.712-1.124 12.206-4.152 20.392 4.034 9.246 9.246 24.288 9.246 33.534 0l20.908-20.908c4.478-4.478 6.944-10.432 6.944-16.766s-2.466-12.29-6.946-16.768c-8.188-8.188-5.156-17.678-4.032-20.392 1.124-2.712 5.69-11.566 17.27-11.566 13.074 0 23.71-10.636 23.71-23.712v-29.568c0-13.074-10.636-23.71-23.71-23.71-11.58 0-16.148-8.852-17.27-11.566-1.124-2.712-4.156-12.204 4.034-20.392 9.246-9.246 9.246-24.29 0-33.534l-20.908-20.908c-4.476-4.478-10.432-6.946-16.766-6.946s-12.29 2.466-16.768 6.946c-8.188 8.186-17.676 5.158-20.392 4.032-2.712-1.124-11.566-5.69-11.566-17.272 0-13.074-10.636-23.71-23.71-23.71h-29.564c-13.074 0-23.71 10.636-23.71 23.71 0 11.606-8.846 16.172-11.556 17.294-2.714 1.124-12.196 4.152-20.402-4.056-4.476-4.478-10.432-6.946-16.766-6.946s-12.292 2.466-16.768 6.946l-20.906 20.906c-4.478 4.476-6.946 10.432-6.946 16.768 0 6.334 2.466 12.29 6.946 16.768 8.188 8.188 5.156 17.678 4.032 20.39-1.124 2.714-5.69 11.566-17.27 11.566-13.076 0.004-23.712 10.64-23.712 23.714zM46 769.476c17.382-1.514 32.034-12.206 38.85-28.666 6.818-16.46 4.018-34.382-7.204-47.744l15.106-15.106c13.372 11.234 31.298 14.040 47.752 7.226 16.456-6.816 27.144-21.476 28.656-38.876h21.36c1.514 17.382 12.206 32.034 28.666 38.852 16.458 6.814 34.38 4.018 47.744-7.202l15.106 15.106c-11.222 13.362-14.020 31.284-7.204 47.744 6.818 16.458 21.468 27.152 38.85 28.666v21.36c-17.382 1.514-32.034 12.206-38.85 28.666s-4.018 34.38 7.202 47.744l-15.106 15.106c-13.366-11.22-31.286-14.018-47.744-7.202-16.458 6.818-27.15 21.468-28.664 38.85h-21.36c-1.514-17.382-12.206-32.034-28.664-38.85-16.46-6.818-34.382-4.018-47.744 7.204l-15.106-15.106c11.22-13.366 14.020-31.286 7.202-47.744-6.814-16.462-21.466-27.154-38.848-28.668zM1004.9 397.256c-4.942-41.456-24.876-80.894-36.32-100.712s-35.628-56.8-69.058-81.808c-21.674-16.214-43.5-24.37-64.648-24.37-14.768 0-29.208 3.976-43.038 11.962l-5.028 2.904c-8.284 4.782-14.21 12.516-16.694 21.782-2.482 9.264-1.216 18.926 3.566 27.208l20.102 34.818c9.886 17.126 31.864 23.014 48.99 13.128l11.792-6.808c3.342-1.932 7.298-1.278 9.846 1.624 10.994 12.536 21.12 26.776 30.098 42.326s16.248 31.442 21.606 47.228c1.24 3.656-0.172 7.41-3.514 9.34l-11.792 6.806c-8.284 4.782-14.21 12.518-16.694 21.782-2.482 9.264-1.216 18.928 3.566 27.21l20.102 34.818c9.884 17.124 31.862 23.012 48.99 13.128l5.030-2.904c33.638-19.42 48.54-53.812 43.098-99.462zM947.802 472.47l-5.028 2.904c-3.754 2.168-8.576 0.876-10.742-2.878l-20.102-34.818c-1.042-1.806-1.316-3.922-0.768-5.962 0.546-2.040 1.842-3.738 3.648-4.78l11.792-6.806c15.006-8.666 21.598-26.178 16.028-42.588-5.946-17.52-13.978-35.092-23.872-52.23-9.892-17.134-21.096-32.876-33.296-46.79-11.428-13.032-29.888-16.076-44.896-7.412l-11.792 6.806c-1.234 0.712-2.584 1.052-3.918 1.052-2.72 0-5.37-1.41-6.826-3.93l-20.102-34.818c-1.042-1.806-1.316-3.922-0.768-5.962 0.546-2.040 1.842-3.738 3.648-4.78l5.028-2.904c23.842-13.764 49-10.302 76.914 10.582 30.524 22.834 53.234 58.928 61.584 73.388 8.348 14.458 28.252 52.176 32.764 90.026 4.126 34.618-5.456 58.136-29.296 71.9z" />
<glyph unicode="&#xe906;" glyph-name="email-marketing" d="M1007.907 527.249c-0.125 2.656-0.445 5.43-0.953 8.297-0.281 1.594-0.633 3.172-1.016 4.742-0.086 0.344-0.172 0.68-0.258 1.023-0.844 3.234-1.898 6.391-3.156 9.477-0.078 0.195-0.148 0.383-0.227 0.563-5.125 12.281-13.469 23.242-24.383 31.774l-162.11 126.68-104.336 228.602c-4.086 8.961-11.43 15.797-20.656 19.242-9.234 3.453-19.258 3.094-28.219-1l-18.188-8.305c-8.969-4.086-15.805-11.422-19.25-20.656s-3.094-19.258 1-28.219l3.055-6.703-21.289-20.508-55.766 43.586c-23.539 18.383-56.367 18.352-79.86-0.063l-341.563-267.798c-0.008 0-0.008-0.008-0.008-0.008l-82.758-64.883c-11.102-8.703-19.531-19.938-24.609-32.5-0.023-0.070-0.055-0.141-0.086-0.211-1.203-3.008-2.211-6.086-3.023-9.234-0.086-0.336-0.172-0.672-0.25-1.008-0.367-1.5-0.703-3.016-0.977-4.547-0.68-3.836-1.023-7.523-1.023-10.953v-544.329c0-24.43 19.875-44.313 44.313-44.313h902.127c0.305 0 0.609 0.039 0.922 0.047 0.328 0.008 0.656 0.023 0.984 0.047 10.359 0.445 20.219 4.461 27.938 11.516 1.273 1.156 2.305 2.516 3.102 4.008 6.594 7.734 10.586 17.758 10.586 28.695v544.329c0.008 0.859-0.016 1.727-0.063 2.609zM656.86 921.055l18.188 8.305c1.023 0.461 1.992 0.625 2.844 0.625 1.031 0 1.883-0.234 2.43-0.438 1-0.375 2.828-1.336 3.859-3.602l173.516-380.157c1.578-3.461 0.047-7.555-3.406-9.133 0 0 0 0-0.008 0l-18.195-8.305c-2.25-1.023-4.266-0.555-5.266-0.188-1 0.375-2.828 1.336-3.859 3.602l-173.516 380.157c-1.578 3.461-0.047 7.555 3.414 9.133zM642.414 863.836l143.071-313.446-297.321-26.734-60.742 133.086zM474.476 370.881c7.438-15.477 18.023-20.688 25.758-24.492 6-2.953 9.008-4.438 12.016-10.68-0.008-0.078-0.094-0.398-0.43-0.563l-25.023-12.023c-12.313-5.914-27.141-0.711-33.016 11.5l-56.305 119.477 31.539 14.398c0.773-3.484 2.016-7.219 3.945-11.219 7.43-15.477 18.023-20.688 25.758-24.492 6-2.953 9.016-4.438 11.961-10.57 2.945-6.125 2.219-9.398 0.773-15.93-1.859-8.414-4.414-19.938 3.023-35.406zM353.226 466.882c-3.953-1.797-8.383-1.961-12.453-0.438-4.078 1.523-7.32 4.539-9.125 8.5l-43.578 95.477c-1.805 3.953-1.961 8.375-0.445 12.453 1.523 4.078 4.547 7.32 8.5 9.125l105.821 48.297 57.102-125.117zM298.164 476.061l-21.641-9.875c-2.367-1.086-4.484-0.594-5.531-0.203s-2.969 1.398-4.047 3.773l-24.609 53.922c-1.656 3.625-0.055 7.922 3.57 9.578l21.641 9.875zM66.475 559.483l424.329 332.688c12.617 9.883 30.242 9.906 42.875 0.031l52.422-40.961-185.305-178.485-117.125-53.461c-11.25-5.133-19.828-14.344-24.148-25.922-2.68-7.172-3.516-14.711-2.555-22.094l-23.516-10.727c-18.672-8.531-26.93-30.656-18.414-49.328l24.617-53.922c4.125-9.047 11.531-15.945 20.844-19.422 4.242-1.578 8.648-2.367 13.039-2.367 5.266 0 10.508 1.125 15.445 3.375l23.961 10.938c4.773-5.039 10.641-8.992 17.336-11.492 5.273-1.969 10.75-2.945 16.211-2.945 6.539 0 13.063 1.406 19.195 4.203l4.5 2.055 56.508-119.922c9.422-19.594 29.047-31.039 49.461-31.039 7.945 0 16.008 1.734 23.633 5.398l25.031 12.023c15.148 7.289 21.672 25.438 14.531 40.469-0.039 0.094-0.086 0.188-0.109 0.234-7.438 15.477-18.031 20.688-25.758 24.492-6.008 2.953-9.023 4.438-11.969 10.57-2.938 6.117-2.211 9.398-0.766 15.93 1.859 8.414 4.406 19.938-3.031 35.406-7.43 15.477-18.023 20.688-25.758 24.492-6 2.953-9.016 4.438-11.961 10.57-2.219 4.609-2.352 7.609-1.672 11.602l24.492 11.18 315.868 28.399 0.984-2.148c4.094-8.969 11.43-15.805 20.656-19.25 4.203-1.563 8.57-2.344 12.922-2.344 5.211 0 10.414 1.117 15.297 3.352l18.195 8.297c8.961 4.094 15.797 11.43 19.242 20.664 3.445 9.227 3.094 19.25-1 28.219l-42.164 92.383 116.625-91.141c2.352-1.836 4.508-3.859 6.461-6.016l-432.228-337.759c-12.633-9.875-30.266-9.859-42.875 0.031l-430.759 337.735c1.938 2.148 4.086 4.172 6.43 6.008zM977.978-16.362c-44.953 38.219-143.649 122.055-237.477 201.141-6.336 5.344-15.797 4.531-21.133-1.797-5.336-6.336-4.531-15.797 1.797-21.141 89.727-75.633 183.915-155.61 231.251-195.844h-880.479c49.922 42.133 141.469 119.289 229.149 192.688 6.352 5.32 7.195 14.773 1.875 21.133-5.32 6.344-14.781 7.188-21.133 1.867-90.492-75.75-185.079-155.485-233.829-196.633v539.587c0 0.047 0.008 0.102 0.008 0.148l332.555-260.735c-14-11.625-28.703-23.867-43.852-36.5-6.359-5.305-7.219-14.766-1.914-21.125 2.969-3.555 7.234-5.391 11.531-5.391 3.383 0 6.789 1.141 9.594 3.477 16.945 14.133 33.328 27.766 48.797 40.602l67.578-52.985c11.766-9.219 25.859-13.836 39.969-13.836 14.070 0.008 28.141 4.594 39.891 13.773l68.906 53.852c14.438-12.070 29.68-24.836 45.43-38.070 2.813-2.359 6.234-3.516 9.641-3.516 4.281 0 8.523 1.82 11.492 5.359 5.328 6.344 4.5 15.805-1.844 21.125-13.984 11.75-27.57 23.141-40.547 33.992l332.727 260.016c0-0.063 0.016-0.125 0.016-0.188z" />
<glyph unicode="&#xe907;" glyph-name="campaign" d="M725.838 638.54v173.402c0 28.914-23.444 52.257-52.397 52.257-28.847 0-52.301-23.364-52.382-52.112l-354.529-161.64c-7.193 17.823-24.605 30.465-44.972 30.465h-142.897c-26.765 0-48.544-21.779-48.544-48.544v-242.985c0-26.765 21.779-48.544 48.544-48.544h119.34c19.519-98.791 33.567-169.887 53.778-272.176 0.695-3.484-1.954-6.743-5.529-6.743h-112.809c-3.118 0-5.647 2.529-5.647 5.64v225.441c0 8.316-6.735 15.059-15.059 15.059s-15.059-6.743-15.059-15.059v-225.441c0-19.713 16.044-35.757 35.765-35.757h112.809c22.576 0 39.425 20.614 35.088 42.684l-17.891 90.551h15.008c16.941 0 30.721 13.779 30.721 30.721v67.081c0 16.941-13.779 30.728-30.721 30.728h-40.403l-9.48 47.982c17.276 2.534 31.615 14.039 37.959 29.762l354.54-161.645c0.157-28.756 23.569-52.113 52.369-52.113 28.897 0 52.397 23.507 52.397 52.397v398.473c49.794-4.605 88.912-46.571 88.912-97.547 0-34.081-17.294-65.199-46.25-83.25-7.059-4.397-9.221-13.684-4.823-20.743 4.423-7.101 13.739-9.189 20.735-4.816 37.853 23.581 60.456 64.257 60.456 108.809 0 67.579-52.626 122.969-119.029 127.664zM278.456 263.449c0.338 0 0.603-0.272 0.603-0.61l-0.603-67.684h-20.959l-13.494 68.294zM239.985 389.382c0-10.162-8.265-18.426-18.426-18.426h-142.897c-10.162 0-18.426 8.265-18.426 18.426v242.985c0 10.162 8.265 18.426 18.426 18.426h142.897c10.162 0 18.426-8.265 18.426-18.426zM673.441 187.669c-12.279 0-22.279 9.993-22.279 22.279v9.412c0 6.409-4.239 11.613-8.809 13.699-220.369 100.472-153.345 69.914-372.25 169.719v216.202l350.941 160.004v-478.851c0-8.316 6.735-15.059 15.059-15.059s15.059 6.743 15.059 15.059v511.809c0 12.206 10 22.14 22.279 22.14 12.388 0 22.279-9.899 22.279-22.14v-601.993c0-12.287-10-22.28-22.279-22.28zM848.5 402.507c-5.882 5.882-15.412 5.882-21.294 0s-5.882-15.412 0-21.294l64.824-64.816c5.882-5.882 15.412-5.883 21.294 0s5.882 15.412 0 21.294zM978.824 525.934h-91.676c-8.323 0-15.059-6.743-15.059-15.059s6.735-15.059 15.059-15.059h91.676c8.323 0 15.059 6.743 15.059 15.059s-6.735 15.059-15.059 15.059zM848.5 619.243l64.824 64.816c5.882 5.882 5.882 15.412 0 21.294s-15.412 5.882-21.294 0l-64.824-64.816c-5.882-5.882-5.882-15.412 0-21.294s15.412-5.882 21.294 0z" />
<glyph unicode="&#xe908;" glyph-name="left-arrow" d="M1024 480.253h-900.515l202.973 202.975-45.614 45.614-280.844-280.842 280.844-280.846 45.614 45.616-202.973 202.973h900.515z" />
<glyph unicode="&#xe909;" glyph-name="right-arrow" d="M743.156 728.843l-45.612-45.614 202.973-202.975h-900.517v-64.509h900.517l-202.973-202.973 45.612-45.614 280.844 280.844z" />
<glyph unicode="&#xe90a;" glyph-name="up-right-arrow" d="M298.667 192c-12.8 0-21.333 4.267-29.867 12.8-17.067 17.067-17.067 42.667 0 59.733l426.667 426.667c17.067 17.067 42.667 17.067 59.733 0s17.067-42.667 0-59.733l-426.667-426.667c-8.533-8.533-17.067-12.8-29.867-12.8zM725.333 234.667c-25.6 0-42.667 17.067-42.667 42.667v341.333h-341.333c-25.6 0-42.667 17.067-42.667 42.667s17.067 42.667 42.667 42.667h384c25.6 0 42.667-17.067 42.667-42.667v-384c0-25.6-17.067-42.667-42.667-42.667z" />
<glyph unicode="&#xe90b;" glyph-name="engineer" d="M512 431.484c36.435 0 66.065 29.629 66.065 66.065h-33.032c0-18.218-14.815-33.032-33.032-33.032s-33.032 14.815-33.032 33.032h-33.032c0-36.435 29.629-66.065 66.065-66.065zM445.935 596.645c0-9.121-7.395-16.516-16.516-16.516s-16.516 7.395-16.516 16.516 7.395 16.516 16.516 16.516 16.516-7.395 16.516-16.516zM611.097 596.645c0-9.121-7.395-16.516-16.516-16.516s-16.516 7.395-16.516 16.516 7.395 16.516 16.516 16.516 16.516-7.395 16.516-16.516zM604.145 951.524c-18.815 5.403-38.597 8.476-59.113 8.476h-66.065c-20.516 0-40.298-3.073-59.113-8.476-238.476-43.532-419.855-252.677-419.855-503.524 0-282.306 229.669-512 512-512s512 229.694 512 512c0 250.847-181.379 459.992-419.855 503.524zM990.968 448c0-118.887-43.637-227.71-115.613-311.524v35.968c0 53.153-36.024 99.266-87.589 112.161l-176.669 44.161v49.75c31.565 20.645 56.25 50.823 70.113 86.411 43.621 2.161 78.532 38.024 78.532 82.169v115.613c18.218 0 33.032 14.815 33.032 33.032v33.032c0 18.218-14.815 33.032-33.032 33.032h-0.839c-3.605 46.855-22.218 89.5-51.137 123.161 166.75-75 283.202-242.589 283.202-436.968zM726.71 167.226v-147.177c-42.097-21.202-87.718-36.379-135.766-44.395l-29.065 174.363 9.992 40.016 52.29-34.863 16.516 132.145 139.081-34.766c36.831-9.218 62.565-42.153 62.565-80.121v-70.774c-25.121-23.96-52.734-45.331-82.581-63.435v129.008zM264.258 167.226v-129.008c-29.847 18.105-57.46 39.476-82.581 63.435v70.774c0 37.952 25.734 70.903 62.548 80.121l139.081 34.766 16.516-132.145 52.29 34.863 9.992-40.016-29.065-174.363c-48.048 8.016-93.653 23.194-135.766 44.395v147.177zM333.145 499.71c-20.629 5.984-35.855 24.839-35.855 47.387 0 21.5 13.855 39.669 33.032 46.508v-63.024c0-10.54 1.089-20.806 2.823-30.871zM426.5 919.169c1.597 0.298 3.202 0.597 4.823 0.863l13.194-158.226h-146.387c6.758 74.621 58.782 136.323 128.371 157.363zM725.871 761.806h-146.387l13.177 158.226c1.621-0.282 3.226-0.581 4.823-0.863 69.605-21.040 121.629-82.742 128.387-157.363zM551.871 827.871h-79.726l-2.758 33.032h85.242zM477.645 761.806l-2.758 33.032h74.226l-2.758-33.032zM559.927 924.556l-2.556-30.621h-90.742l-2.556 30.621c15.774 1.589 31.758 2.411 47.927 2.411s32.153-0.823 47.927-2.411zM759.742 728.774l0.016-33.032h-495.5v33.032zM693.677 530.581v63.024c19.177-6.839 33.032-25.008 33.032-46.508 0-22.548-15.226-41.403-35.855-47.387 1.734 10.065 2.823 20.331 2.823 30.871zM726.71 612.734c-9.645 7.298-20.758 12.766-33.032 15.258v34.718h33.032zM330.323 628.008c-12.274-2.508-23.387-7.96-33.032-15.258v49.96h33.032zM363.355 662.71h297.29v-132.129c0-81.952-66.677-148.645-148.645-148.645s-148.645 66.694-148.645 148.645zM539.944 251.016l58.565 46.839 9.895-2.484-10.387-83.073zM512 348.903c23.323 0 45.548 4.573 66.065 12.621v-37.71l-66.065-52.855-66.065 52.855v37.71c20.516-8.048 42.742-12.621 66.065-12.621zM425.492 297.871l58.565-46.839-58.073-38.718-10.387 83.073zM491.863 167.226l-10.565 42.266 30.702 20.476 30.702-20.476-10.565-42.266zM316.234 884.968c-28.935-33.661-47.548-76.306-51.137-123.161h-0.839c-18.218 0-33.032-14.815-33.032-33.032v-33.032c0-18.218 14.815-33.032 33.032-33.032v-115.613c0-44.145 34.911-80.008 78.532-82.169 13.863-35.605 38.548-65.782 70.113-86.411v-49.75l-176.669-44.161c-51.565-12.895-87.589-59.024-87.589-112.177v-35.968c-71.976 83.831-115.613 192.653-115.613 311.54 0 194.379 116.452 361.968 283.202 436.968zM465.806-28.685l27.153 162.879h38.081l27.153-162.879c-15.21-1.476-30.605-2.282-46.194-2.282s-30.984 0.806-46.194 2.282z" />
<glyph unicode="&#xe90c;" glyph-name="workstations" d="M993.88 363.92h-963.76c-6.62 0-12 5.38-12 12v56.66c0 6.64 5.38 12 12 12h963.76c6.62 0 12-5.36 12-12v-56.66c0-6.62-5.38-12-12-12zM42.12 387.92h939.76v32.68h-939.76zM124.66-63.58h-64.040c-6.62 0-12 5.36-12 11.98v427.52c0 6.62 5.38 12 12 12h64.040c6.62 0 11.98-5.38 11.98-12v-427.52c0-6.62-5.36-11.98-11.98-11.98zM72.62-39.6h40.040v403.52h-40.040zM963.38-63.58h-64.040c-6.62 0-11.98 5.36-11.98 11.98v427.52c0 6.62 5.36 12 11.98 12h64.040c6.62 0 12-5.38 12-12v-427.52c0-6.62-5.38-11.98-12-11.98zM911.34-39.6h40.040v403.52h-40.040zM899.34 251.62h-325.6c-6.62 0-12 5.36-12 12v112.3c0 6.62 5.38 12 12 12h325.6c6.62 0 12-5.38 12-12v-112.3c0-6.64-5.38-12-12-12zM585.74 275.6h301.62v88.32h-301.62zM899.34 139.3h-325.6c-6.62 0-12 5.38-12 12v112.32c0 6.62 5.38 11.98 12 11.98h325.6c6.62 0 12-5.36 12-11.98v-112.32c0-6.62-5.38-12-12-12zM585.74 163.3h301.62v88.32h-301.62zM899.34 27h-325.6c-6.62 0-12 5.38-12 12v112.3c0 6.62 5.38 12 12 12h325.6c6.62 0 12-5.38 12-12v-112.3c0-6.62-5.38-12-12-12zM585.74 51h301.62v88.3h-301.62zM763.1 307.76h-53.12c-6.62 0-11.98 5.38-11.98 12s5.36 12 11.98 12h53.12c6.62 0 11.98-5.38 11.98-12s-5.36-12-11.98-12zM763.1 195.46h-53.12c-6.62 0-11.98 5.38-11.98 12s5.36 12 11.98 12h53.12c6.62 0 11.98-5.38 11.98-12s-5.36-12-11.98-12zM763.1 83.16h-53.12c-6.62 0-11.98 5.36-11.98 12 0 6.62 5.36 11.98 11.98 11.98h53.12c6.62 0 11.98-5.36 11.98-11.98 0-6.64-5.36-12-11.98-12zM955.88 420.6h-207.7c-6.62 0-12 5.36-12 11.98v0.22c0 52.92 43.040 95.96 95.96 95.96h39.8c52.9 0 95.94-43.040 95.94-95.96v-0.22c0-6.62-5.38-11.98-12-11.98zM761.14 444.58h181.78c-5.62 34.1-35.32 60.18-70.98 60.18h-39.8c-35.68 0-65.36-26.080-71-60.18zM852.020 504.76c-2.3 0-4.64 0.68-6.7 2.060-5.5 3.7-6.94 11.16-3.22 16.66l134.24 198.76-189.48 125.68c-5.52 3.66-7.040 11.1-3.36 16.62 3.66 5.52 11.1 7.040 16.62 3.36l199.56-132.34c2.66-1.78 4.52-4.54 5.14-7.68 0.62-3.12-0.040-6.38-1.82-9.040l-141.040-208.8c-2.3-3.42-6.080-5.28-9.94-5.28zM804.54 797.32h-157.2c-6.62 0-12 5.36-12 11.98v8.54c0 49.96 40.64 90.6 90.6 90.6s90.6-40.64 90.6-90.6v-8.54c0-6.62-5.36-11.98-12-11.98zM659.42 821.3h133.040c-1.8 35.12-30.94 63.14-66.52 63.14-35.56 0-64.7-28.020-66.52-63.14zM760.92 876.18c-1.84 0-3.68 0.42-5.36 1.28-9.28 4.64-19.24 6.98-29.62 6.98s-20.34-2.34-29.6-6.98c-3.72-1.86-8.14-1.68-11.68 0.5-3.54 2.2-5.7 6.060-5.7 10.22v44.66c0 14.74 12 26.76 26.76 26.76h40.44c14.76 0 26.76-12.020 26.76-26.76v-44.66c0-4.16-2.16-8.020-5.7-10.22-1.92-1.18-4.1-1.78-6.3-1.78zM725.94 908.44c7.86 0 15.54-0.98 23-2.96v27.36c0 1.5-1.28 2.76-2.78 2.76h-40.44c-1.5 0-2.76-1.26-2.76-2.76v-27.36c7.44 1.98 15.12 2.96 22.98 2.96zM191.26 420.6h-129.26c-6.020 0-11.12 4.46-11.9 10.42l-30.98 236.24c-0.72 5.56 1.040 11.24 4.84 15.56 4.12 4.68 10.28 7.46 16.54 7.46h172.28c6.24 0 12.42-2.78 16.52-7.46 3.8-4.32 5.58-10 4.86-15.56l-31-236.22c-0.78-5.98-5.86-10.44-11.9-10.44zM72.52 444.58h108.22l29.080 221.72h-166.38zM670.28 525.040h-316.56c-14.32 0-25.96 11.64-25.96 25.96v196.54c0 14.3 11.64 25.96 25.96 25.96h316.56c14.3 0 25.94-11.66 25.94-25.96v-196.54c0-14.32-11.64-25.96-25.94-25.96zM353.72 749.5c-1.040 0-1.96-0.92-1.96-1.96v-196.54c0-1.040 0.92-1.96 1.96-1.96h316.56c1.040 0 1.96 0.92 1.96 1.96v196.54c0 1.040-0.92 1.96-1.96 1.96zM556.16 458.78h-88.32c-6.62 0-12 5.38-12 12v66.26c0 6.62 5.38 12 12 12h88.32c6.62 0 11.98-5.38 11.98-12v-66.26c0-6.62-5.36-12-11.98-12zM479.84 482.78h64.32v42.26h-64.32zM580.68 693.48h-137.36c-6.62 0-11.98 5.38-11.98 12s5.36 12 11.98 12h137.36c6.62 0 11.98-5.38 11.98-12s-5.36-12-11.98-12zM554.12 644.36h-109.32c-6.64 0-12 5.36-12 11.98 0 6.64 5.36 12 12 12h109.32c6.62 0 12-5.36 12-12 0-6.62-5.38-11.98-12-11.98zM684.24 588.34h-344.48c-6.62 0-12 5.36-12 12 0 6.62 5.38 11.98 12 11.98h344.48c6.62 0 12-5.36 12-11.98 0-6.64-5.38-12-12-12zM605.020 420.6h-186.040c-6.62 0-12 5.36-12 11.98v38.2c0 6.62 5.38 11.98 12 11.98h186.040c6.62 0 12-5.36 12-11.98v-38.2c0-6.62-5.38-11.98-12-11.98zM430.98 444.58h162.060v14.2h-162.060z" />
<glyph unicode="&#xe90d;" glyph-name="cyber-security" d="M517.51-18h-11.019c-10.308 0-20.43 1.832-30.086 5.443-106.19 39.729-191.518 104.115-253.613 191.372-48.762 68.521-82.582 150.433-100.52 243.458-29.588 153.44-5.629 286.445-4.594 292.032 5.297 28.605 24.485 52.377 51.327 63.591l309.896 129.468c10.539 4.404 21.675 6.636 33.098 6.636s22.559-2.233 33.098-6.636l309.897-129.468c26.842-11.215 46.030-34.987 51.327-63.59 1.034-5.589 24.99-138.609-4.594-292.032-17.938-93.026-51.759-174.937-100.52-243.458-62.095-87.257-147.422-151.644-253.612-191.371-9.655-3.613-19.778-5.444-30.085-5.444zM512 882c-7.166 0-14.151-1.4-20.762-4.162l-309.897-129.468c-16.838-7.035-28.875-21.947-32.197-39.891-0.989-5.343-23.906-132.578 4.55-280.147 17.065-88.495 49.085-166.202 95.171-230.963 58.325-81.958 138.653-142.504 238.752-179.955 6.057-2.265 12.407-3.414 18.873-3.414h11.019c6.466 0 12.816 1.149 18.874 3.415 100.1 37.45 180.427 97.995 238.752 179.954 46.087 64.761 78.107 142.469 95.172 230.964 28.452 147.553 5.538 274.803 4.549 280.147-3.322 17.942-15.359 32.855-32.197 39.889l-309.896 129.468c-6.611 2.761-13.597 4.162-20.763 4.162zM517.51 51.861h-11.019c-1.914 0-3.813 0.344-5.606 1.014-92.895 34.754-167.308 90.755-221.172 166.446-42.921 60.314-72.813 133.048-88.843 216.181-14.173 73.497-14.665 141.759-12.582 186.082 2.263 48.161 7.847 78.725 8.084 80.002 0.983 5.311 4.581 9.768 9.565 11.85l309.896 129.468c3.947 1.649 8.389 1.649 12.336 0l309.896-129.468c4.984-2.083 8.581-6.538 9.564-11.85 0.237-1.277 5.82-31.841 8.083-80.002 2.083-44.322 1.591-112.584-12.582-186.082-16.030-83.134-45.922-155.866-88.843-216.18-53.865-75.691-128.277-131.692-221.172-166.446-1.792-0.671-3.691-1.014-5.605-1.014zM509.408 83.861h5.184c156.21 59.393 252.798 179.722 287.117 357.7 22.007 114.125 10.089 216.423 5.792 245.784l-295.501 123.454-295.507-123.455c-1.768-12.019-4.821-36.231-6.286-68.231-1.951-42.601-1.406-108.147 12.264-178.49 34.489-177.467 131.012-297.48 286.935-356.762zM589.115 249.94h-154.23c-41.418 0-75.115 33.698-75.115 75.12v125.33c0 41.421 33.697 75.12 75.115 75.12h154.23c41.418 0 75.115-33.699 75.115-75.12v-125.33c0-41.422-33.696-75.12-75.115-75.12zM434.885 493.51c-23.774 0-43.115-19.344-43.115-43.12v-125.33c0-23.777 19.341-43.12 43.115-43.12h154.23c23.774 0 43.115 19.344 43.115 43.12v125.33c0 23.776-19.341 43.12-43.115 43.12zM512 368.605c-24.443 0-44.33 19.886-44.33 44.33 0 24.447 19.887 44.335 44.33 44.335s44.33-19.888 44.33-44.335c0-24.444-19.886-44.33-44.33-44.33zM512 425.27c-6.799 0-12.33-5.533-12.33-12.335 0-6.799 5.531-12.33 12.33-12.33s12.33 5.532 12.33 12.33c0 6.802-5.531 12.335-12.33 12.335zM611.638 493.507c-8.837 0-16 7.163-16 16v49.007c0 46.118-37.519 83.637-83.638 83.637s-83.637-37.52-83.637-83.637v-49.007c0-8.837-7.163-16-16-16s-16 7.163-16 16v49.007c0 30.888 12.029 59.927 33.87 81.768s50.88 33.87 81.768 33.87c30.888 0 59.927-12.029 81.768-33.87s33.87-50.88 33.87-81.768v-49.007c0-8.837-7.163-16-16-16zM512 320.85c-8.837 0-16 7.163-16 16v47.755c0 8.837 7.163 16 16 16s16-7.163 16-16v-47.755c0-8.837-7.163-16-16-16z" />
<glyph unicode="&#xe90e;" glyph-name="next" d="M968.832 478.165l-298.667 298.667c-7.665 7.41-18.12 11.977-29.641 11.977-23.564 0-42.667-19.103-42.667-42.667 0-11.521 4.567-21.976 11.989-29.653l225.823-225.823h-750.336c-23.564 0-42.667-19.103-42.667-42.667s19.103-42.667 42.667-42.667v0h750.336l-225.835-225.835c-8.036-7.769-13.026-18.647-13.026-30.69 0-23.564 19.103-42.667 42.667-42.667 12.043 0 22.92 4.989 30.678 13.014l298.679 298.679c7.718 7.721 12.492 18.386 12.492 30.165s-4.774 22.445-12.492 30.165v0z" />
<glyph unicode="&#xe90f;" glyph-name="up-right-arrow-1" d="M1024 916.39v-662.404c0-24.084-19.526-43.61-43.61-43.61s-43.61 19.526-43.61 43.61v557.112l-862.33-862.328c-8.518-8.514-19.676-12.772-30.838-12.772s-22.32 4.258-30.838 12.772c-17.032 17.032-17.032 44.646 0 61.678l862.332 862.332h-557.12c-24.084 0-43.61 19.526-43.61 43.61s19.526 43.61 43.61 43.61h662.404c24.084 0.002 43.61-19.526 43.61-43.61z" />
<glyph unicode="&#xe910;" glyph-name="pointed-star" d="M655.897 566.746c-11.313 0-23.323 8.732-26.828 19.49l-110.737 340.796c-3.505 10.761-9.16 10.761-12.665 0l-110.717-340.796c-3.505-10.761-15.514-19.49-26.828-19.49h-358.34c-11.313 0-13.076-5.391-3.916-12.052l289.887-210.589c9.16-6.662 13.752-20.781 10.247-31.543l-110.714-340.776c-3.505-10.761 1.087-14.1 10.247-7.441l289.887 210.589c9.16 6.662 24.001 6.662 33.161 0l289.887-210.609c9.16-6.662 13.752-3.321 10.247 7.441l-110.717 340.776c-3.505 10.761 1.087 24.881 10.247 31.543l289.887 210.589c9.16 6.662 7.398 12.052-3.916 12.052l-358.32 0.020z" />
<glyph unicode="&#xe911;" glyph-name="paper-plane" d="M970.069 819.328c3.072 20.224-5.547 40.491-22.229 52.395-16.683 11.861-38.656 13.355-56.789 3.84-145.109-76.203-652.715-342.699-808.619-424.533-19.243-10.069-30.592-30.635-28.928-52.267s16-40.235 36.565-47.275c60.715-20.779 134.912-46.251 251.264-86.144l469.333 438.656-379.819-469.333c124.075-42.539 318.080-109.056 366.763-125.739 15.232-5.248 32.043-3.413 45.824 4.907 13.781 8.363 23.125 22.4 25.557 38.357zM376.832 208.085v-139.52c0-21.419 12.587-40.832 32.085-49.579 19.541-8.789 42.368-5.291 58.368 8.96l121.088 107.605z" />
<glyph unicode="&#xe912;" glyph-name="globe" d="M512 960c-282.984 0-512-228.994-512-512 0-282.984 228.994-512 512-512 282.984 0 512 228.994 512 512 0 282.984-228.994 512-512 512zM313.892 854.494c-15.494-42.198-28.5-85.094-38.998-128.59-30.682 9.322-60.864 20.5-90.486 33.524 37.508 39.406 81.216 71.492 129.484 95.066zM144.676 711.52c38.342-17.756 77.582-32.6 117.604-44.506-11.612-61.986-18.252-125.076-19.828-189.014h-181.448c5.526 84.882 34.452 165.22 83.672 233.52zM144.676 184.48c-49.22 68.3-78.146 148.638-83.672 233.52h181.448c1.576-63.938 8.216-127.028 19.828-189.014-40.022-11.906-79.26-26.75-117.604-44.506zM184.408 136.57c29.622 13.026 59.802 24.204 90.486 33.524 10.5-43.496 23.504-86.392 38.998-128.59-48.244 23.562-91.956 55.642-129.484 95.066zM482-2.996c-31.508 2.050-62.394 7.31-92.27 15.65-23.73 56.24-42.67 113.904-56.796 172.726 48.636 10.874 98.398 17.232 149.066 19.030v-207.406zM482 264.446c-54.896-1.814-108.81-8.614-161.502-20.35-10.468 57.058-16.5 115.1-18.026 173.904h179.528v-153.554zM482 478h-179.528c1.526 58.804 7.558 116.846 18.026 173.904 52.692-11.736 106.606-18.536 161.502-20.35v-153.554zM482 691.59c-50.668 1.798-100.43 8.156-149.066 19.030 14.126 58.822 33.066 116.486 56.796 172.726 29.876 8.34 60.762 13.6 92.27 15.65v-207.406zM879.324 711.52c49.22-68.3 78.146-148.638 83.672-233.52h-181.448c-1.576 63.938-8.216 127.028-19.828 189.014 40.022 11.906 79.26 26.75 117.604 44.506zM839.592 759.43c-29.622-13.026-59.802-24.204-90.486-33.524-10.5 43.496-23.504 86.392-38.998 128.59 48.244-23.562 91.956-55.642 129.484-95.066zM542 898.996c31.508-2.050 62.394-7.31 92.27-15.65 23.73-56.24 42.67-113.904 56.796-172.726-48.636-10.874-98.398-17.232-149.066-19.030v207.406zM542 631.554c54.896 1.814 108.81 8.614 161.502 20.35 10.468-57.058 16.5-115.1 18.026-173.904h-179.528v153.554zM634.268 12.656c-29.874-8.342-60.76-13.602-92.268-15.652v207.406c50.668-1.798 100.43-8.156 149.066-19.030-14.128-58.822-33.066-116.486-56.798-172.724zM542 264.446v153.554h179.528c-1.526-58.804-7.558-116.846-18.026-173.904-52.692 11.736-106.606 18.536-161.502 20.35zM710.108 41.506c15.494 42.198 28.5 85.094 38.998 128.59 30.682-9.322 60.864-20.5 90.486-33.524-37.508-39.406-81.216-71.492-129.484-95.066zM879.324 184.48c-38.342 17.756-77.582 32.6-117.604 44.506 11.612 61.986 18.252 125.076 19.828 189.014h181.448c-5.526-84.882-34.452-165.22-83.672-233.52z" />
<glyph unicode="&#xe913;" glyph-name="text" d="M96 704c0 17.673 14.327 32 32 32h768c17.674 0 32-14.327 32-32s-14.326-32-32-32h-768c-17.673 0-32 14.326-32 32zM96 192c0 17.674 14.327 32 32 32h768c17.674 0 32-14.326 32-32s-14.326-32-32-32h-768c-17.673 0-32 14.326-32 32zM266.668 448c0 17.674 14.326 32 32 32h597.332c17.674 0 32-14.326 32-32s-14.326-32-32-32h-597.332c-17.674 0-32 14.326-32 32z" />
<glyph unicode="&#xe914;" glyph-name="staircase" d="M342.575 902.594c-9.619 8.068-21.876 12.567-34.444 12.567h-159.341c-29.479 0-53.527-24.048-53.527-53.527s24.048-53.527 53.527-53.527h50.269v-149.876h-55.234c-6.206 0-11.326-5.12-11.326-11.326v-205.11c0-6.206 5.12-11.326 11.326-11.326s11.326 5.12 11.326 11.326v193.939h114.967v-160.737c0-6.206 5.12-11.326 11.326-11.326h208.989l-0.31-160.737c0-2.948 1.241-5.896 3.258-8.068 2.172-2.172 4.965-3.413 8.068-3.413h209.455v-160.737c0-6.206 5.12-11.326 11.326-11.326h195.336v-115.122h-583.99c-6.206 0-11.326-5.12-11.326-11.326s5.12-11.326 11.326-11.326h595.316c6.206 0 11.326 5.12 11.326 11.326v137.93c0 6.206-5.12 11.326-11.326 11.326h-77.265v194.25l68.887-57.716c9.619-8.068 21.876-12.567 34.288-12.567 15.825 0 30.72 6.982 40.96 19.084 9.154 10.861 13.498 24.824 12.257 38.943-1.241 14.274-7.913 27.152-18.928 36.305zM281.445 658.385h-59.578v149.876h66.87l127.535-106.899v-215.195h-123.345v160.892c-0.155 6.206-5.12 11.326-11.481 11.326zM509.828 482.909c-2.172 2.172-4.965 3.413-8.068 3.413h-62.836v196.112l184.475-154.531v-213.644h-110.623l0.31 160.737c0.155 2.948-1.086 5.741-3.258 7.913zM828.975 141.886h-95.263v160.892c0 6.206-5.12 11.326-11.326 11.326h-76.024v194.56l182.768-153.135v-213.644zM978.385 299.985c-10.395-12.412-30.72-14.274-43.287-3.724l-634.88 532.17c-2.017 1.707-4.655 2.638-7.292 2.638h-144.136c-16.912 0-30.72 13.808-30.72 30.72s13.808 30.72 30.72 30.72h159.341c7.137 0 14.274-2.638 19.704-7.292l646.672-542.099c6.206-5.275 10.085-12.722 10.861-20.945 0.931-8.068-1.707-15.981-6.982-22.187zM273.998 188.432h-42.822c2.172 23.738 16.446 80.679 99.918 104.262 4.655 1.241 8.068 5.43 8.223 10.395 0.31 4.81-2.638 9.309-7.137 11.171-1.707 0.621-28.082 10.395-59.888 10.24 20.48 12.878 42.977 22.807 67.181 29.789 4.499 1.241 7.758 5.12 8.223 9.93 0.465 4.655-2.017 9.154-6.206 11.171-2.017 1.086-50.735 24.824-100.073 7.292-23.273-8.223-42.512-24.204-57.561-47.476-41.891 81.61-138.55 57.716-139.636 57.406-4.499-1.241-7.913-4.965-8.378-9.775-0.465-4.655 1.862-9.154 6.051-11.326 25.6-13.498 48.097-30.255 67.025-50.424-42.046 10.24-83.782-6.051-86.264-6.982-4.499-1.707-7.292-6.206-7.137-11.016 0.31-4.81 3.568-8.999 8.223-10.395 83.316-23.583 97.59-80.524 99.762-104.262h-34.133c-7.758 0-14.895-3.413-19.859-9.464-4.81-6.051-6.827-13.808-5.275-21.256l27.152-133.12c5.12-25.29 27.772-43.753 53.527-43.753h73.542c25.91 0 48.407 18.463 53.527 43.753l26.996 133.12c1.552 7.602-0.31 15.36-5.275 21.256-4.655 6.051-11.947 9.464-19.704 9.464zM65.784 301.072c24.359 2.482 56.475-0.776 78.507-27.462 3.724-4.655 10.395-5.43 15.205-2.172 4.81 3.413 6.361 9.93 3.413 15.050-20.325 35.064-47.321 64.388-80.524 87.195 29.789-1.086 71.68-13.033 89.057-68.422 1.396-4.499 5.43-7.602 10.085-7.913 4.81-0.31 9.154 2.327 11.016 6.672 13.343 29.479 32.272 48.718 56.010 57.096 17.998 6.516 36.461 5.896 51.2 3.258-32.272-13.498-60.975-32.737-85.799-57.406-4.034-4.034-4.499-10.55-0.931-15.205 3.568-4.499 10.085-5.585 14.895-2.482 19.394 12.102 42.046 13.498 60.509 11.636-65.629-32.427-78.196-87.971-80.368-112.485h-61.75c-2.172 24.514-14.739 80.058-80.524 112.64zM276.945 162.211l-27.152-133.12c-2.948-14.895-16.136-25.6-31.341-25.6h-73.542c-15.050 0-28.238 10.705-31.341 25.6l-27.152 133.12c-0.155 1.086 0.155 1.862 0.621 2.327s1.086 1.086 2.327 1.086h184.63c1.086 0 1.862-0.621 2.327-1.086 0.31-0.31 0.776-1.086 0.621-2.327zM984.592 915.161h-256.931c-13.188 0-23.893-10.705-23.893-23.893v-176.097c0-13.188 10.705-23.893 23.893-23.893h256.931c13.188 0 23.893 10.705 23.893 23.893v176.097c0 13.188-10.705 23.893-23.893 23.893zM727.661 892.509h256.931c0.621 0 1.086-0.465 1.086-1.086v-96.815c-40.805 4.034-82.23-3.568-113.881-20.48-26.531 30.099-75.559 49.183-128.621 49.183-5.585 0-11.171-0.31-16.756-0.776v68.732c0 0.621 0.621 1.241 1.241 1.241zM817.493 714.085h-89.988c-0.621 0-1.086 0.465-1.086 1.086v84.558c5.43 0.465 11.016 0.621 16.756 0.621 44.994 0 86.419-14.739 109.227-38.478-17.842-13.343-29.944-29.789-34.909-47.787zM985.678 715.171c0-0.621-0.465-1.086-1.086-1.086h-142.739c5.275 12.722 15.825 24.514 30.72 34.133 0.931 0.621 1.552 1.241 2.482 1.707h0.155c29.168 17.998 70.594 26.376 110.623 22.032v-56.785zM880.485 820.674c11.947 0 21.721 9.775 21.721 21.721s-9.775 21.721-21.721 21.721-21.721-9.775-21.721-21.721 9.775-21.721 21.721-21.721z" />
<glyph unicode="&#xe915;" glyph-name="plant" d="M521.664 924.752c-5.712 4.336-13.632 4.336-19.344 0l-464-352c-3.984-3.040-6.32-7.744-6.32-12.752v-576c0-8.832 7.152-16 16-16h928c8.848 0 16 7.168 16 16v576c0 5.008-2.336 9.712-6.336 12.752zM208 544v-377.376l-144-144v521.376zM784 176h-144v18.944c18.576 6.624 32 24.224 32 45.056 0 25.328-19.776 45.92-44.672 47.664l104.624 117.696c4.464 5.024 5.312 12.288 2.144 18.208s-9.632 9.232-16.352 8.272l-41.456-5.92c-29.024-4.144-55.184-17.584-75.488-37.296 10.384 50.832 13.104 103.152 7.296 155.456l-0.208 1.76c-0.768 6.752-5.728 12.288-12.352 13.776-6.688 1.456-13.504-1.36-17.088-7.12l-6.336-10.144c-20.272-32.448-36.432-66.96-48.736-102.752-4.752 27.792-12.784 55.024-24.256 80.832l-20.464 46.064c-2.688 6.016-8.992 9.696-15.392 9.488-6.592-0.32-12.336-4.656-14.4-10.928l-13.728-41.2c-14.048-42.144-19.44-86.864-16.464-131.040-19.616 17.376-44 29.264-70.912 33.104l-41.456 5.92c-6.704 0.944-13.184-2.352-16.352-8.272s-2.336-13.184 2.144-18.208l104.624-117.696c-24.944-1.744-44.72-22.336-44.72-47.664 0-20.832 13.424-38.432 32-45.056v-18.944h-144v376.16l272 211.552 272-211.552zM584.816 288h-1.728l14.88 39.664c13.152 35.104 44.112 60.368 81.024 66.304zM533.792 288h-5.472c1.648 70.496 18.928 139.44 50.864 201.984 0.208-69.76-15.296-138.56-45.392-201.984zM489.12 314.848l-5.968-26.848h-7.632l-10.080 30.256c-21.008 63.040-21.008 132.464-0.016 195.488l0.688 2.048 3.712-8.368c26.704-60.016 33.568-128.416 19.296-192.576zM440.912 288h-1.728l-94.192 105.968c36.928-5.936 67.872-31.2 81.024-66.304zM624 256c8.832 0 16-7.184 16-16s-7.168-16-16-16h-224c-8.832 0-16 7.184-16 16s7.168 16 16 16zM416 192h192v-112c0-8.816-7.168-16-16-16h-160c-8.832 0-16 7.184-16 16zM230.624 144h153.376v-64c0-26.464 21.536-48 48-48h160c26.464 0 48 21.536 48 48v64h153.376l144-144h-850.752zM816 166.624v377.376h144v-521.376zM512 891.92l416.432-315.92h-122.944l-283.664 220.64c-5.776 4.48-13.872 4.48-19.664 0l-283.648-220.64h-122.944z" />
<glyph unicode="&#xe916;" glyph-name="vacuum-cleaner" d="M854.758 812.305h-106.031c-14.453 17.352-36.094 27.898-59.781 27.898h-11.945l-24.18 57.172c-7.836 18.602-25.945 30.625-46.133 30.625h-105.133c-20.195 0-38.305-12.023-46.164-30.695l-23.75-57.102h-12.344c-23.688 0-45.328-10.555-59.781-27.898h-70.234c-93.32 0-169.242-75.922-169.242-169.242 0-172.625 0.188-139.883 0.188-550.422h-92.305c-15.398 0-27.922-12.523-27.922-27.922v-66.961c0-15.398 12.523-27.922 27.922-27.922h290.234c34.633 0 62.797 28.172 62.797 62.797 0 12.633-3.75 24.406-10.195 34.266 10.141 2.93 18.563 10.008 23.219 19.445h320.289c4.648-9.43 13.063-16.516 23.219-19.445-6.445-9.859-10.203-21.633-10.203-34.266 0-34.625 28.172-62.797 62.797-62.797s62.797 28.172 62.797 62.797c0 12.633-3.75 24.406-10.195 34.266 18.008 5.211 29.438 22.961 26.656 41.555l-13.508 90.383c-2.727 18.211-18.656 31.945-37.070 31.945h-13.68v17.086h4.484c8.289 0 15 6.711 15 15 0 8.281-6.711 15-15 15h-4.484v32.297h4.484c8.289 0 15 6.711 15 15 0 8.281-6.711 15-15 15h-4.484v52.93h18.875c23.18 0 42.352 17.484 45.016 39.953 86.703 7.25 155.031 80.117 155.031 168.656v41.359c0 93.32-75.922 169.242-169.242 169.242zM825.383 573.984h-20.305v1.836c8.344 4.93 13.953 14.016 13.953 24.383v16.789c0 10.102-5.328 18.984-13.313 24v36.68c0 10.555-6.406 19.648-15.531 23.586l-5.008 15.68h69.578c40.734 0 73.875-33.141 73.875-73.875v-41.367c0-35.758-25.539-65.664-59.344-72.438v0.82c0 24.211-19.695 43.906-43.906 43.906zM298.672 310.164h4.484v-32.297h-4.484c-8.281 0-15-6.719-15-15 0-8.289 6.719-15 15-15h4.484v-17.086h-13.68c-18.406 0-34.344-13.734-37.070-31.945l-13.508-90.383c-0.797-5.344-0.422-10.734 1.023-15.813h-24.703v194.742c0 8.289-6.719 15-15 15-8.289 0-15-6.711-15-15v-71.813h-34.992v250.758h34.992v-108.945c0-8.281 6.711-15 15-15 8.281 0 15 6.719 15 15v121.977c0.281 1.805 0.18-8.297 0.18 163.703 0 40.734 33.148 73.883 73.883 73.883h33.781l-5.008-15.688c-9.125-3.938-15.531-13.031-15.531-23.586v-36.68c-7.992-5.008-13.313-13.891-13.313-24v-16.789c0-10.367 5.609-19.461 13.945-24.391v-235.656h-4.484c-8.281 0-15-6.711-15-15 0-8.281 6.719-14.992 15-14.992zM712 116.344h-315.758l-10.352 69.227h336.453zM353.898 195.766c0.383-1.141-0.648 5.273 13.852-91.75 0.672-4.516-2.813-8.586-7.398-8.586h-84.383c-4.57 0-8.070 4.055-7.398 8.586l13.508 90.383c0.547 3.641 3.727 6.375 7.406 6.375h57.359c3.195 0 6.016-2.070 7.055-5.008zM319.211 615.305h469.812v-13.406h-469.813zM510.938 645.305l10.609 18.961h65.156l10.609-18.961zM483.070 885.727c3.133 7.453 10.391 12.273 18.484 12.273h105.133c8.094 0 15.352-4.82 18.5-12.289l19.242-45.508h-17.969l-13.531 32.133c-2.344 5.563-7.789 9.18-13.82 9.18h-89.969c-6.039 0-11.484-3.617-13.828-9.18l-13.523-32.133h-17.656zM593.906 840.203h-79.57l4.766 11.313h70.039zM419.297 810.203h269.648c20.914 0 39.242-13.383 45.602-33.305l23.484-73.547h-88.555l-14.891 23.891c-6.945 11.125-18.914 17.773-32.031 17.773h-14.047c-8.289 0-15-6.719-15-15 0-8.289 6.711-15 15-15h14.047c2.688 0 5.148-1.367 6.57-3.648l19.297-30.953c2.734-4.391 7.547-7.063 12.727-7.063h114.57v-28.047h-144.039l-20.156 36.031c-4.453 7.977-12.906 12.93-22.039 12.93h-70.727c-9.133 0-17.578-4.953-22.039-12.922l-20.156-36.047h-144.039v28.055h114.57c5.18 0 9.992 2.672 12.727 7.063l19.297 30.953c1.43 2.281 3.883 3.648 6.578 3.648h52.813c8.289 0 15 6.711 15 15 0 8.281-6.711 15-15 15h-52.813c-13.117 0-25.094-6.648-32.031-17.773l-14.898-23.891h-88.555l23.484 73.547c6.367 19.922 24.688 33.305 45.602 33.305zM289.281 782.305h54.656l-11.297-35.359h-43.359c-57.273 0-103.875-46.602-103.875-103.883v-146.734h-35.367v146.734c0 76.781 62.461 139.242 139.242 139.242zM30 62.641h93.891c14.516 0 26.336 11.813 26.336 26.336v96.594h34.984v-96.594c0-14.523 11.82-26.336 26.336-26.336h51.461c-10.602-19.406-10.297-43.43 1.617-62.805h-234.625zM318.164-0.164c-18.086 0-32.797 14.711-32.797 32.797s14.711 32.797 32.797 32.797c18.078 0 32.797-14.711 32.797-32.797s-14.719-32.797-32.797-32.797zM790.078-0.164c-18.078 0-32.789 14.711-32.789 32.797s14.711 32.797 32.789 32.797c18.086 0 32.797-14.711 32.797-32.797s-14.711-32.797-32.797-32.797zM826.156 194.398l13.516-90.383c0.672-4.523-2.82-8.586-7.398-8.586h-84.383c-4.344 0-7.813 3.688-7.453 8.102 0.031 0.398-0.898-5.891 13.563 90.867 0.539 3.609 3.703 6.375 7.398 6.375h57.367c3.672 0 6.852-2.734 7.391-6.375zM775.078 230.773h-13.68c-12.117 0-23.156-5.945-30.070-15.203h-354.414c-6.906 9.258-17.953 15.203-30.070 15.203h-13.688v17.094h441.922zM432.836 310.164h342.242v-32.297h-441.914v32.297h29.672c8.289 0 15 6.711 15 15 0 8.281-6.711 15-15 15h-29.672v231.734h441.914v-231.734h-342.242c-8.281 0-15-6.719-15-15 0-8.289 6.719-15 15-15zM839.289 438.43c0-8.461-6.875-15.336-15.336-15.336h-18.875v120.891h20.305c7.672 0 13.906-6.234 13.906-13.906zM994 601.703c0-71.719-54.492-130.938-124.242-138.445v35.641c50.195 7.297 88.875 50.617 88.875 102.805v41.359c0 57.281-46.594 103.883-103.875 103.883h-79.156l-11.289 35.359h90.445c76.781 0 139.242-62.461 139.242-139.242zM540.141 424.156h27.961c25.039 0 45.406 20.367 45.406 45.398v27.969c0 25.031-20.375 45.406-45.406 45.406h-27.961c-25.039 0-45.406-20.375-45.406-45.406v-27.969c0-25.031 20.367-45.398 45.406-45.398zM524.734 497.523c0 8.492 6.906 15.398 15.406 15.398h27.961c8.492 0 15.406-6.906 15.406-15.398v-27.969c0-8.492-6.914-15.406-15.406-15.406h-27.961c-8.5 0-15.406 6.914-15.406 15.406z" />
<glyph unicode="&#xe917;" glyph-name="quotes" d="M208 80c-1.601 0.017-3.141 0.25-4.602 0.67l0.122-0.030c-6.711 2.003-11.52 8.12-11.52 15.36v310.96h-176c-8.837 0-16 7.163-16 16v0 377.040c0 8.837 7.163 16 16 16v0h400c8.837 0 16-7.163 16-16v0-376.72c0-0.001 0-0.002 0-0.004 0-3.174-0.924-6.132-2.518-8.62l0.038 0.064-208-327.28c-2.882-4.5-7.857-7.44-13.518-7.44-0.001 0-0.002 0-0.003 0v0zM32 439.28h176c8.837 0 16-7.163 16-16v0-272l176 276.72v356h-368zM800 80c-1.601 0.017-3.141 0.25-4.602 0.67l0.122-0.030c-6.711 2.003-11.52 8.12-11.52 15.36v310.96h-176c-8.837 0-16 7.163-16 16v0 377.040c0 8.837 7.163 16 16 16v0h400c8.837 0 16-7.163 16-16v0-376.72c0-0.001 0-0.002 0-0.004 0-3.174-0.924-6.132-2.518-8.62l0.038 0.064-208-327.28c-2.882-4.5-7.857-7.44-13.518-7.44-0.001 0-0.002 0-0.003 0v0zM624 439.28h176c8.837 0 16-7.163 16-16v0-272l176 276.72v356h-368z" />
<glyph unicode="&#xe918;" glyph-name="user" d="M512 960c-148.878 0-270-121.122-270-270s121.122-270 270-270 270 121.122 270 270-121.122 270-270 270zM512 480c-115.794 0-210 94.206-210 210s94.206 210 210 210c115.794 0 210-94.206 210-210s-94.206-210-210-210zM847.932 243.61c-73.92 75.056-171.914 116.39-275.932 116.39h-120c-104.016 0-202.012-41.334-275.932-116.39-73.558-74.688-114.068-173.276-114.068-277.61 0-16.568 13.432-30 30-30h840c16.568 0 30 13.432 30 30 0 104.334-40.51 202.922-114.068 277.61zM123.32-4c15.030 170.172 156.702 304 328.68 304h120c171.978 0 313.65-133.828 328.68-304h-777.36z" />
<glyph unicode="&#xe919;" glyph-name="envelope" d="M512 144.3c-11.4 0-22.8 4-31.9 12l-398.8 350.7 26.4 30 398.8-350.7c3.1-2.7 7.8-2.7 10.9 0l398.9 350.7 26.4-30-398.8-350.7c-9.1-8-20.5-12-31.9-12zM905.5-3.8h-787c-24.3 0-44 19.8-44 44v490.9l405.6 356.6c18.2 16 45.6 16 63.8 0l405.6-356.7v-490.8c0-24.2-19.8-44-44-44zM114.5 513v-472.7c0-2.2 1.8-4 4-4h786.9c2.2 0 4 1.8 4 4v472.7l-392 344.7c-3.1 2.7-7.8 2.7-10.9 0zM284.898 235.006l28.28-28.28-204.464-204.464-28.28 28.28zM739.137 235.082l204.464-204.464-28.28-28.28-204.464 204.464zM517.5 404.4h-11c-50.5 0-91.5 41.1-91.5 91.5v52.6c0 50.5 41.1 91.5 91.5 91.5h11c50.5 0 91.5-41.1 91.5-91.5v-52.6c0-50.5-41-91.5-91.5-91.5zM506.5 600c-28.4 0-51.5-23.1-51.5-51.5v-52.6c0-28.4 23.1-51.5 51.5-51.5h11c28.4 0 51.5 23.1 51.5 51.5v52.6c0 28.4-23.1 51.5-51.5 51.5zM512 334.1c-103.7 0-188 84.3-188 188s84.3 188 188 188 188-84.3 188-188v-23.4c0-36.1-29.4-65.5-65.5-65.5s-65.5 29.4-65.5 65.5h40c0-14.1 11.4-25.5 25.5-25.5s25.5 11.4 25.5 25.5v23.4c0 81.6-66.4 148-148 148s-148-66.4-148-148 66.4-148 148-148c24.1 0 47 5.6 68.2 16.6l18.5-35.5c-26.6-13.8-56.6-21.1-86.7-21.1z" />
<glyph unicode="&#xe91a;" glyph-name="edit" d="M945.112 316.73c-14.086 0-25.503-11.417-25.503-25.503v-226.438c-0.050-42.239-34.27-76.469-76.509-76.509h-715.586c-42.239 0.040-76.459 34.27-76.509 76.509v664.58c0.050 42.229 34.27 76.459 76.509 76.509h226.438c14.086 0 25.503 11.417 25.503 25.503 0 14.076-11.417 25.503-25.503 25.503h-226.438c-70.392-0.080-127.435-57.123-127.515-127.515v-664.59c0.080-70.392 57.123-127.435 127.515-127.515h715.586c70.392 0.080 127.435 57.123 127.515 127.515v226.448c0 14.086-11.417 25.503-25.503 25.503zM960.513 922.503c-44.819 44.819-117.483 44.819-162.302 0l-454.988-454.988c-3.118-3.118-5.37-6.983-6.545-11.227l-59.832-216.008c-2.461-8.856 0.040-18.34 6.535-24.845 6.505-6.495 15.989-8.996 24.845-6.545l216.008 59.842c4.244 1.176 8.109 3.427 11.227 6.545l454.978 454.998c44.75 44.849 44.75 117.453 0 162.302zM398.792 450.939l372.372 372.382 120.093-120.093-372.382-372.382zM374.803 402.802l95.945-95.955-132.715-36.77zM954.376 766.338l-27.047-27.047-120.103 120.103 27.057 27.047c24.895 24.895 65.262 24.895 90.157 0l29.936-29.926c24.855-24.925 24.855-65.262 0-90.177z" />
<glyph unicode="&#xe91b;" glyph-name="info" d="M580.422 238.546c-10.468-0.976-20.978 1.386-30.022 6.75-6.608 6.784-9.776 16.202-8.61 25.6 0.244 7.824 1.178 15.612 2.792 23.272 1.562 8.788 3.58 17.488 6.050 26.066l27.462 94.488c2.832 9.326 4.704 18.918 5.586 28.626 0 10.472 1.396 17.688 1.396 21.876 0.584 18.666-7.386 36.578-21.644 48.64-17.538 13.464-39.378 20.082-61.44 18.618-15.81-0.238-31.498-2.826-46.546-7.68-16.446-5.12-33.746-11.248-51.898-18.386l-7.912-30.72c5.352 1.862 11.87 3.956 19.316 6.284 7.104 2.104 14.468 3.202 21.876 3.258 10.392 1.126 20.852-1.426 29.556-7.214 5.912-7.054 8.686-16.218 7.68-25.368-0.026-7.826-0.884-15.628-2.56-23.272-1.63-8.146-3.724-16.756-6.284-25.832l-27.694-94.952c-2.232-8.826-4.018-17.758-5.352-26.764-1.088-7.71-1.632-15.486-1.63-23.272-0.114-18.794 8.48-36.582 23.272-48.174 17.808-13.674 39.96-20.452 62.37-19.084 15.78-0.324 31.506 1.956 46.546 6.75 13.188 4.5 30.798 10.938 52.83 19.316l7.448 29.324c-5.968-2.476-12.114-4.498-18.386-6.050-7.932-1.812-16.076-2.516-24.202-2.1zM609.512 686.546c-12.666 11.632-29.354 17.89-46.546 17.454-17.182 0.388-33.854-5.864-46.546-17.454-23.264-20.060-25.862-55.182-5.8-78.448 1.788-2.074 3.726-4.012 5.8-5.8 26.504-23.706 66.588-23.706 93.090 0 23.264 20.258 25.702 55.538 5.444 78.802-1.684 1.938-3.504 3.758-5.442 5.446zM512 960c-282.77 0-512-229.23-512-512s229.23-512 512-512 512 229.23 512 512-229.23 512-512 512zM512-17.454c-257.064 0-465.454 208.39-465.454 465.454s208.39 465.454 465.454 465.454 465.454-208.39 465.454-465.454-208.39-465.454-465.454-465.454z" />
<glyph unicode="&#xe91c;" glyph-name="customer-service" d="M831.017 68.129l-38.235 114.721c-13.362 40.052-47.451 69.615-89.005 77.18l-110.377 20.084v8.555c19.208 11.148 35.923 26.062 49.235 43.718h33.346c27.318 0 49.548 22.231 49.548 49.548v198.194c0 118.388-96.322 214.71-214.71 214.71s-214.71-96.322-214.71-214.71v-115.613c0-31.843 22.644-58.484 52.67-64.694 9.266-47.467 38.929-87.635 79.459-111.154v-8.555l-110.394-20.084c-41.538-7.564-75.644-37.128-88.989-77.18l-6.606-19.836-56.254 56.254c-6.441 6.441-6.441 16.929 0 23.37l65.239 65.222-122.451 122.451-73.728-73.728c-21.834-21.834-33.858-50.87-33.858-81.755s12.024-59.904 33.858-81.738l223.215-223.215c21.834-21.834 50.87-33.875 81.755-33.875s59.904 12.040 81.226 33.379l80.45 73.711-25.088 25.038h354.403zM692.497 381.935c0-9.117-7.416-16.516-16.516-16.516h-13.89c4.79 10.917 8.423 22.429 10.769 34.403 7.069 1.47 13.576 4.278 19.638 7.812v-25.699zM675.98 436.075v56.882c9.827-5.731 16.516-16.268 16.516-28.441s-6.689-22.71-16.516-28.441zM345.658 436.075c-9.827 5.731-16.516 16.268-16.516 28.441s6.689 22.71 16.516 28.441v-56.882zM345.658 547.097v-18.861c-5.88-1.536-11.396-3.848-16.516-6.838v58.731c0 100.17 81.507 181.677 181.677 181.677s181.677-81.507 181.677-181.677v-58.731c-5.12 2.989-10.636 5.318-16.516 6.838v18.861h-16.516c-48.838 0-94.753 19.027-129.305 53.562l-19.34 19.34-19.34-19.34c-34.552-34.535-80.467-53.562-129.305-53.562h-16.516zM378.69 431.484v83.208c49.598 3.733 95.843 24.196 132.129 58.698 36.286-34.502 82.531-54.982 132.129-58.698v-83.208c0-24.081-6.573-46.609-17.87-66.065h-114.259v-33.032h87.106c-23.288-20.497-53.727-33.032-87.106-33.032-72.853 0-132.129 59.276-132.129 132.129zM560.367 273.937v-0.776l-49.548-49.548-49.548 49.548v0.776c15.657-4.922 32.289-7.614 49.548-7.614s33.891 2.692 49.548 7.614zM260.17 172.412c9.53 28.606 33.891 49.73 63.571 55.147l115.448 20.975 71.63-71.63 71.614 71.614 115.431-20.975c29.679-5.417 54.041-26.525 63.571-55.147l23.767-71.234h-341.62l-64.33 64.33-71.482-64.661c-6.227-6.26-17.111-6.26-23.354 0l-36.071 36.071 11.826 35.51zM108.767 383.604l75.743-75.743-17.937-17.937-75.743 75.743 17.937 17.937zM398.377-6.805c-15.591-15.558-36.335-24.163-58.385-24.163s-42.793 8.605-58.401 24.196l-223.215 223.199c-15.591 15.591-24.18 36.335-24.18 58.385 0 22.066 8.588 42.81 24.18 58.401l9.084 9.084 75.743-75.743-0.595-0.595c-19.307-19.324-19.307-50.754 0-70.078l118.437-118.437c9.365-9.348 21.801-14.518 35.047-14.518s25.683 5.153 34.436 13.94l1.239 1.107 76.090-76.090-9.48-8.687zM432.235 24.246l-75.925 75.925 21.818 19.72 75.793-75.793-21.686-19.852zM973.271 960h-231.226c-27.318 0-49.548-22.231-49.548-49.548v-132.129c0-27.318 22.231-49.548 49.548-49.548h44.115l-17.078-99.609 159.381 99.609h44.808c27.318 0 49.548 22.231 49.548 49.548v132.129c0 27.318-22.231 49.548-49.548 49.548zM989.787 778.323c0-9.1-7.416-16.516-16.516-16.516h-54.289l-104.894-65.553 11.247 65.553h-83.291c-9.1 0-16.516 7.416-16.516 16.516v132.129c0 9.1 7.416 16.516 16.516 16.516h231.226c9.1 0 16.516-7.416 16.516-16.516v-132.129zM758.561 893.935h198.194v-33.032h-198.194v33.032zM758.561 827.871h132.129v-33.032h-132.129v33.032zM923.722 827.871h33.032v-33.032h-33.032v33.032zM510.819 910.452c-215.8 0-401.689-149.273-450.015-357.492l-31.298 52.174-28.325-16.995 58.054-96.735 96.735 58.054-16.995 28.325-44.759-26.855c46.807 190.481 218.095 326.491 416.603 326.491 43.388 0 86.198-6.441 127.24-19.159l9.778 31.546c-44.214 13.708-90.31 20.645-137.018 20.645zM1014.792 594.3l-96.735 58.054-58.038-96.751 28.325-16.995 28.903 48.178c15.211-44.511 22.99-91.070 22.99-138.785 0-98.221-34.023-194.246-95.777-270.369l25.65-20.81c66.527 81.986 103.16 185.41 103.16 291.179 0 50.523-8.142 99.857-24.014 147.093l48.541-29.118 16.995 28.325z" />
<glyph unicode="&#xe91d;" glyph-name="passport" d="M337.394 667.203c-115.718 0-209.527-93.809-209.527-209.527s93.809-209.527 209.527-209.527c115.718 0 209.527 93.809 209.527 209.527s-93.809 209.527-209.527 209.527zM492.459 536.248h-75.513c-7.222 36.187-18.502 65.436-30.019 88.002 46.144-13.77 84.023-45.766 105.532-88.002zM389.776 457.675c0-15.588-1.168-29.908-2.772-43.652h-99.213c-1.611 13.744-2.781 28.066-2.781 43.652 0 15.595 1.15 29.912 2.746 43.652h99.283c1.587-13.739 2.737-28.059 2.737-43.652zM332.313 631.771c1.722 0.050 3.342 0.511 5.081 0.511 1.757 0 3.383-0.469 5.131-0.519 13.104-20.104 29.039-51.906 38.688-95.514h-87.635c9.695 43.759 25.689 75.546 38.734 95.523zM287.86 624.25c-11.476-22.518-22.764-51.799-29.993-88.002h-75.539c21.511 42.235 59.39 74.223 105.532 88.002zM162.788 457.675c0 15.16 2.549 29.618 6.199 43.652h83.577c-1.458-13.829-2.473-28.212-2.473-43.652 0-15.448 1.041-29.814 2.523-43.652h-83.628c-3.649 14.034-6.199 28.491-6.199 43.652zM182.328 379.103h75.624c7.299-36.268 18.593-65.768 29.858-87.986-46.118 13.779-83.979 45.766-105.482 87.986zM342.466 283.58c-1.722-0.052-3.333-0.511-5.072-0.511s-3.35 0.461-5.081 0.511c-12.515 19.25-28.817 51.125-38.688 95.523h87.543c-9.859-44.37-26.143-76.229-38.701-95.523zM386.995 291.116c11.28 22.24 22.568 51.716 29.849 87.986h75.615c-21.503-42.215-59.357-74.201-105.464-87.986zM422.183 414.024c1.475 13.838 2.514 28.203 2.514 43.652 0 15.44-1.006 29.823-2.464 43.652h83.569c3.649-14.034 6.199-28.494 6.199-43.652 0-15.16-2.549-29.618-6.199-43.652h-83.619zM162.788 143.384h349.212v-34.921h-349.212v34.921zM737.029 327.473l18.082 67.461 33.73-9.041-18.082-67.461-33.73 9.041zM655.685 23.966l63.262 236.107 33.73-9.038-63.262-236.107-33.73 9.038zM949.111 849.143l-404.772 108.461c-6.054 1.622-12.135 2.396-18.118 2.396-30.838-0.002-59.056-20.582-67.42-51.784l-36.506-136.25h-364.272c-19.285 0-34.921-15.634-34.921-34.921v-698.425c0-19.287 15.636-34.921 34.921-34.921h403.343l243.715-65.303c6.054-1.622 12.131-2.396 18.118-2.396 30.838 0 59.056 20.582 67.42 51.784l207.882 775.821c9.985 37.257-12.131 75.554-49.39 85.537zM58.024 38.62v698.425h523.819c19.259 0 34.921-15.667 34.921-34.921v-628.582c0-19.255-15.662-34.921-34.921-34.921h-523.819zM964.774 772.643l-207.882-775.821c-4.092-15.252-17.945-25.903-33.695-25.903-3.034 0-6.087 0.406-9.080 1.209l-121.773 32.63c33.546 5.096 59.338 33.808 59.338 68.782v276.847l17.886-4.793 18.083 67.463-33.736 9.038-2.233-8.346v277.513c10.887-2.918 23.454-6.286 35.637-9.551l41.299-135.019 28.91-7.748-2.737 124.688c18.986-5.090 38.374-10.282 51.077-13.687l22.448-39.585 19.277-5.164-3.315 55.117 30.429 46.076-19.277 5.164-39.227-23.059c-12.711 3.403-32.090 8.597-51.085 13.687l64.718 106.61-28.91 7.748-103.273-96.282c-20.309 5.441-42.466 11.382-54.471 14.595-11.764 21.987-34.672 37.113-61.341 37.113h-123.401l34.085 127.209c4.092 15.25 17.947 25.901 33.695 25.903 3.034 0 6.087-0.406 9.080-1.209l404.774-108.461c9.012-2.414 16.54-8.193 21.204-16.271 4.666-8.076 5.908-17.485 3.496-26.492zM737.089 453.483l8.933 33.758 33.184-8.781-8.933-33.758-33.184 8.781zM803.368 435.875l8.932 33.756 33.184-8.781-8.932-33.756-33.184 8.781zM670.814 471.038l8.932 33.756 33.184-8.781-8.932-33.756-33.184 8.781z" />
<glyph unicode="&#xe91e;" glyph-name="right" d="M512 149.333c-0.074 0-0.161-0.001-0.248-0.001-23.564 0-42.667 19.103-42.667 42.667 0 11.844 4.826 22.561 12.619 30.291l0.003 0.003 226.133 225.707-226.133 225.707c-6.377 7.412-10.259 17.129-10.259 27.753 0 23.564 19.103 42.667 42.667 42.667 10.624 0 20.341-3.883 27.809-10.307l-0.056 0.047 256-256c7.668-7.712 12.407-18.343 12.407-30.080s-4.74-22.368-12.409-30.082l-255.998-255.998c-7.667-7.606-18.211-12.323-29.857-12.373h-0.010zM256 149.333c-0.074 0-0.161-0.001-0.248-0.001-23.564 0-42.667 19.103-42.667 42.667 0 11.844 4.826 22.561 12.619 30.291l0.003 0.003 226.133 225.707-226.133 225.707c-7.753 7.753-12.548 18.463-12.548 30.293 0 23.661 19.181 42.841 42.841 42.841 11.83 0 22.541-4.795 30.293-12.548l256-256c7.668-7.712 12.407-18.343 12.407-30.080s-4.74-22.368-12.409-30.082l-255.998-255.998c-7.709-7.861-18.426-12.749-30.284-12.8h-0.010z" />
<glyph unicode="&#xe91f;" glyph-name="telephone" d="M984.762 750.908c-39.292 54.066-108.1 102.866-193.752 137.406-85.19 34.352-184.102 53.348-278.52 53.484-94.426 0.236-193.46-18.564-278.772-52.65-85.8-34.282-154.774-82.87-194.208-136.808-37.876-51.806-48.792-107.644-31.57-161.478 11.172-34.924 43.762-58.422 81.116-58.476l127.902-0.12c0.042 0 0.084 0 0.128 0 25.504 0.002 49.466 11.166 65.75 30.644 16.112 19.27 22.786 44.454 18.312 69.098-0.13 0.722-0.29 1.442-0.472 2.156l-6.73 26.164c37.268 17.782 121.708 52.138 218.15 51.592 96.372-0.494 180.754-34.83 218.068-52.62l-6.838-26.016c-0.194-0.736-0.358-1.478-0.498-2.224-4.542-24.63 2.058-49.832 18.114-69.148 16.256-19.56 40.236-30.796 65.806-30.834l127.902-0.12c0.042 0 0.086 0 0.128 0 37.282 0.002 69.882 23.392 81.14 58.242 17.382 53.822 6.61 109.74-31.156 161.708zM957.76 607.988c-3.030-9.376-12.476-15.916-23.004-15.916-0.010 0-0.024 0-0.036 0l-127.902 0.12c-7.368 0.010-14.25 3.212-18.882 8.786-2.518 3.030-6.448 9.332-5.162 18.096l12.724 48.406c3.486 13.266-2.292 27.226-14.134 34.15-4.934 2.884-122.54 70.656-268.956 71.41-0.814 0.004-1.604 0.006-2.416 0.006-145.474 0-262.242-67.476-267.168-70.364-11.766-6.9-17.534-20.76-14.136-33.972l12.472-48.484c1.274-8.782-2.68-15.084-5.21-18.112-4.638-5.548-11.514-8.728-18.882-8.728-0.012 0-0.024 0-0.036 0l-127.904 0.12c-10.526 0.016-19.976 6.588-22.98 15.984-11.184 34.962-3.548 70.892 22.696 106.788 69.714 95.352 247.314 164.414 422.604 164.414 0.312 0 0.646 0 0.958 0 175.464-0.252 353.33-69.942 422.924-165.706 26.178-36.034 33.728-72.032 22.43-106.998zM801.19 400.386l-95.382 100.15c-5.77 6.056-13.764 9.482-22.126 9.482h-61.64v41.646c0 16.876-13.68 30.556-30.556 30.556-16.874 0-30.556-13.68-30.556-30.556v-41.646h-97.844v41.646c0 16.876-13.68 30.556-30.556 30.556s-30.556-13.68-30.556-30.556v-41.646h-61.638c-8.362 0-16.36-3.428-22.126-9.482l-95.38-100.15c-74.784-78.524-115.97-181.488-115.97-289.924v-125.706c0-16.876 13.68-30.556 30.556-30.556h749.184c16.876 0 30.556 13.68 30.556 30.556v125.706c0.004 108.438-41.182 211.4-115.966 289.924zM167.972 15.312v95.15c0 92.674 35.198 180.668 99.114 247.78l86.348 90.668h317.152l86.348-90.668c63.912-67.108 99.11-155.106 99.11-247.78v-95.15h-688.072zM512.010 385.73c-88.18 0-159.918-71.74-159.918-159.918 0-88.18 71.74-159.92 159.918-159.92s159.918 71.74 159.918 159.92c0 88.18-71.738 159.918-159.918 159.918zM512.010 127.006c-54.484 0-98.806 44.324-98.806 98.808 0 54.482 44.324 98.806 98.806 98.806s98.806-44.324 98.806-98.806c0-54.484-44.324-98.808-98.806-98.808z" />
<glyph unicode="&#xe920;" glyph-name="download" d="M311.4 708.072h-50.52c-11.044 0-20-8.954-20-20v-126.512c0-11.046 8.956-20 20-20h50.52c26.784 0 48.572 21.79 48.572 48.572v69.368c0 26.784-21.788 48.572-48.572 48.572zM319.972 590.132c0-4.646-3.926-8.572-8.572-8.572h-30.52v86.512h30.52c4.646 0 8.572-3.924 8.572-8.572zM494.296 688.072c0-11.046-8.956-20-20-20h-59.092v-23.254h35.122c11.044 0 20-8.954 20-20s-8.956-20-20-20h-35.122v-43.256c0-11.046-8.956-20-20-20s-20 8.954-20 20v126.512c0 11.046 8.956 20 20 20h79.092c11.046-0.002 20-8.956 20-20.002zM174.11 708.072h-47.556c-11.044 0-20-8.954-20-20v-126.512c0-11.046 8.956-20 20-20s20 8.954 20 20v43.256h27.554c28.418 0 51.538 23.16 51.538 51.626 0 28.47-23.118 51.63-51.536 51.63zM174.11 644.818h-27.556v23.254h27.554c6.254 0 11.538-5.326 11.538-11.628s-5.282-11.626-11.536-11.626zM399.544 371.238h220.208c11.044 0 20-8.956 20-20s-8.956-20-20-20h-220.208c-11.044 0-20 8.956-20 20s8.956 20 20 20zM639.752 259.194c0-11.044-8.956-20-20-20h-220.208c-11.044 0-20 8.956-20 20s8.956 20 20 20h220.208c11.044 0 20-8.956 20-20zM1003.762 130.374c-4.374 10.666-14.646 17.556-26.174 17.556h-48.054v207.916c0 28.084-21.896 51.134-49.51 53.014v398.226c0 5.304-2.108 10.392-5.858 14.142l-132.91 132.914c-3.752 3.75-8.838 5.858-14.142 5.858h-512.6c-11.044 0-20-8.954-20-20v-70.608h-70.608c-11.044 0-20-8.954-20-20v-71.858h-30.468c-30.514 0-55.338-24.824-55.338-55.336v-194.764c0-30.512 24.824-55.336 55.338-55.336h30.468v-440.114c0-11.044 8.956-20 20-20h607.452l68.804-67.842c5.474-5.4 12.666-8.1 19.86-8.098 7.194 0 14.386 2.7 19.866 8.096l157.56 155.36c8.21 8.092 10.686 20.212 6.314 30.874zM747.112 891.716l64.628-64.63h-64.628zM707.112 920v-112.914c0-11.046 8.956-20 20-20h112.912v-378.088h-76.358c-29.306 0-53.15-23.844-53.15-53.152v-207.914h-48.056c-6.098 0-11.836-1.944-16.544-5.34h-411.4v329.506h292.902c30.512 0 55.336 24.824 55.336 55.336v194.764c0 30.512-24.824 55.336-55.336 55.336h-292.904v142.466zM143.906 829.392h50.608v-51.858h-50.608zM58.1 527.434v194.764c0 8.456 6.88 15.336 15.338 15.336h453.978c8.458 0 15.336-6.88 15.336-15.336v-194.764c0-8.456-6.878-15.336-15.336-15.336h-453.978c-8.458 0-15.338 6.88-15.338 15.336zM143.906 51.984v420.114h50.608v-349.506c0-11.044 8.956-20 20-20h425.376c0.82-1.082 1.72-2.116 2.708-3.090l48.192-47.518zM820.024-19.268l-129.002 127.2h39.494c11.044 0 20 8.956 20 20v227.914c0 7.252 5.898 13.152 13.15 13.152h112.714c7.252 0 13.152-5.9 13.152-13.152v-227.914c0-11.044 8.956-20 20-20h39.494z" />
<glyph unicode="&#xe921;" glyph-name="down-arrow-1" d="M512 128c-8.184 0-16.376 3.128-22.624 9.376l-320 320c-12.504 12.504-12.504 32.752 0 45.248s32.752 12.504 45.248 0l297.376-297.376 297.376 297.376c12.504 12.504 32.752 12.504 45.248 0s12.504-32.752 0-45.248l-320-320c-6.248-6.248-14.44-9.376-22.624-9.376zM534.624 393.376l320 320c12.504 12.504 12.504 32.752 0 45.248s-32.752 12.504-45.248 0l-297.376-297.376-297.376 297.376c-12.504 12.504-32.752 12.504-45.248 0s-12.504-32.752 0-45.248l320-320c6.248-6.248 14.44-9.376 22.624-9.376s16.376 3.128 22.624 9.376z" />
<glyph unicode="&#xe922;" glyph-name="conversation" d="M1020.314 156.312l-59.474 173.086c28.668 58.604 43.818 123.78 43.92 189.358 0.176 114.026-43.94 221.84-124.224 303.581-80.3 81.756-187.304 127.778-301.305 129.584-118.21 1.868-229.322-43.096-312.857-126.628-80.548-80.546-125.224-186.732-126.638-300.205-79.388-59.772-126.246-152.962-126.092-252.5 0.074-46.58 10.558-92.882 30.424-134.752l-40.966-119.216c-7.042-20.494-1.898-42.746 13.426-58.070 10.784-10.786 25.002-16.528 39.624-16.528 6.152 0 12.376 1.016 18.446 3.102l119.218 40.966c41.87-19.866 88.172-30.35 134.752-30.424 0.168 0 0.328 0 0.496 0 101.020 0.004 194.92 48.070 254.474 129.404 61.974 1.632 123.292 16.634 178.726 43.752l173.088-59.476c7.212-2.478 14.608-3.686 21.918-3.686 17.376 0 34.272 6.824 47.090 19.644 18.208 18.21 24.32 44.652 15.952 69.008zM329.061 18.618c-0.13 0-0.268 0-0.398 0-41.228 0.062-82.17 10.226-118.392 29.39-7.448 3.938-16.192 4.62-24.156 1.884l-122.246-42.006 42.006 122.244c2.736 7.966 2.056 16.71-1.884 24.156-19.164 36.224-29.328 77.164-29.392 118.394-0.102 66.318 25.696 129.176 70.81 176.244 14.736-89.832 57.55-172.612 123.914-237.796 65.874-64.702 148.678-105.898 238.022-119.366-47.176-46.498-110.768-73.144-178.284-73.144zM961.258 130.404c-1.734-1.734-3.79-2.206-6.102-1.41l-185.296 63.672c-3.218 1.106-6.566 1.654-9.902 1.654-4.918 0-9.818-1.19-14.252-3.538-52.906-27.988-112.69-42.832-172.894-42.924-0.198 0-0.378 0-0.576 0-201.726 0-368.353 163.868-371.549 365.547-1.61 101.57 37.026 197.028 108.788 268.791s167.236 110.384 268.793 108.784c201.872-3.202 365.853-170.136 365.541-372.127-0.094-60.204-14.936-119.99-42.922-172.892-3.94-7.446-4.62-16.19-1.884-24.156l63.67-185.296c0.794-2.32 0.318-4.374-1.414-6.104zM753.785 680.975h-363.121c-16.832 0-30.476-13.646-30.476-30.476 0-16.832 13.646-30.476 30.476-30.476h363.121c16.832 0 30.476 13.646 30.476 30.476s-13.644 30.476-30.476 30.476zM753.785 555.633h-363.121c-16.832 0-30.476-13.646-30.476-30.476s13.646-30.476 30.476-30.476h363.121c16.832 0 30.476 13.646 30.476 30.476s-13.644 30.476-30.476 30.476zM614.009 430.295h-223.346c-16.832 0-30.476-13.646-30.476-30.476 0-16.832 13.646-30.476 30.476-30.476h223.344c16.832 0 30.476 13.646 30.476 30.476s-13.642 30.476-30.474 30.476z" />
<glyph unicode="&#xe923;" glyph-name="share" d="M789.648 271.212c-49.062 0-93.265-21.187-123.945-54.891l-275.945 170.906c7.367 18.859 11.453 39.344 11.453 60.773 0 21.437-4.086 41.922-11.453 60.773l275.945 170.914c30.68-33.703 74.883-54.898 123.945-54.898 92.422 0 167.609 75.187 167.609 167.609s-75.187 167.601-167.609 167.601c-92.422 0-167.609-75.187-167.609-167.609 0-21.43 4.094-41.914 11.453-60.773l-275.937-170.906c-30.68 33.703-74.883 54.898-123.945 54.898-92.422 0-167.609-75.195-167.609-167.609 0-92.422 75.187-167.609 167.609-167.609 49.062 0 93.265 21.187 123.945 54.898l275.937-170.906c-7.359-18.859-11.453-39.344-11.453-60.781 0-92.414 75.187-167.601 167.609-167.601s167.609 75.187 167.609 167.601c0 92.422-75.187 167.609-167.609 167.609zM683.156 792.391c0 58.719 47.773 106.492 106.492 106.492s106.492-47.773 106.492-106.492c0-58.719-47.773-106.492-106.492-106.492s-106.492 47.773-106.492 106.492zM233.61 341.509c-58.726 0-106.5 47.773-106.5 106.492s47.773 106.492 106.5 106.492c58.719 0 106.484-47.773 106.484-106.492s-47.766-106.492-106.484-106.492zM683.156 103.611c0 58.719 47.773 106.492 106.492 106.492s106.492-47.773 106.492-106.492c0-58.719-47.773-106.492-106.492-106.492s-106.492 47.773-106.492 106.492z" />
<glyph unicode="&#xe924;" glyph-name="left" d="M512 149.333c-0.073 0-0.16-0.001-0.247-0.001-11.721 0-22.338 4.726-30.049 12.377l-255.997 255.997c-7.668 7.712-12.407 18.343-12.407 30.080s4.74 22.368 12.409 30.082l255.998 255.998c7.412 6.377 17.129 10.259 27.753 10.259 23.564 0 42.667-19.103 42.667-42.667 0-10.624-3.883-20.341-10.307-27.809l0.047 0.056-225.707-225.707 225.707-225.707c7.795-7.733 12.621-18.45 12.621-30.294 0-23.501-19.001-42.565-42.478-42.666h-0.010zM768 149.333c-0.073 0-0.16-0.001-0.247-0.001-11.721 0-22.338 4.726-30.049 12.377l-255.997 255.997c-7.668 7.712-12.407 18.343-12.407 30.080s4.74 22.368 12.409 30.082l255.998 255.998c7.412 6.377 17.129 10.259 27.753 10.259 23.564 0 42.667-19.103 42.667-42.667 0-10.624-3.883-20.341-10.307-27.809l0.047 0.056-225.707-225.707 225.707-225.707c7.795-7.733 12.621-18.45 12.621-30.294 0-23.501-19.001-42.565-42.478-42.666h-0.010z" />
<glyph unicode="&#xe925;" glyph-name="calendar" d="M904 880h-48v80h-80v-80h-528v80h-80v-80h-48c-66.168 0-120-53.832-120-120v-704c0-66.168 53.832-120 120-120h784c66.168 0 120 53.832 120 120v704c0 66.168-53.832 120-120 120zM944 56c0-22.056-17.944-40-40-40h-784c-22.056 0-40 17.944-40 40v528h864v-528zM944 664h-864v96c0 22.056 17.944 40 40 40h48v-80h80v80h528v-80h80v80h48c22.056 0 40-17.944 40-40v-96zM152 500h80v-80h-80v80zM312 500h80v-80h-80v80zM472 500h80v-80h-80v80zM632 500h80v-80h-80v80zM792 500h80v-80h-80v80zM152 340h80v-80h-80v80zM312 340h80v-80h-80v80zM472 340h80v-80h-80v80zM632 340h80v-80h-80v80zM152 180h80v-80h-80v80zM312 180h80v-80h-80v80zM472 180h80v-80h-80v80zM632 180h80v-80h-80v80zM792 340h80v-80h-80v80z" />
<glyph unicode="&#xe926;" glyph-name="pin" d="M512 960c-211.961-0.29-383.71-172.039-384-383.972v-0.028c0-275.68 357.76-620.96 372.96-635.52 2.85-2.772 6.745-4.481 11.040-4.481s8.19 1.709 11.044 4.485l-0.004-0.004c15.2 14.56 372.96 359.84 372.96 635.52-0.29 211.961-172.039 383.71-383.972 384h-0.028zM512 400c-97.202 0-176 78.798-176 176s78.798 176 176 176c97.202 0 176-78.798 176-176v0c-0.060-97.178-78.822-175.94-175.994-176h-0.006z" />
<glyph unicode="&#xe927;" glyph-name="trading" d="M704 896h-384c-44.183 0-80-35.817-80-80v0-736c0-44.183 35.817-80 80-80v0h384c44.183 0 80 35.817 80 80v0 736c0 44.183-35.817 80-80 80v0zM608 864v-16c0-8.837-7.163-16-16-16v0h-160c-8.837 0-16 7.163-16 16v0 16zM272 816c0 26.51 21.49 48 48 48v0h64v-16c0-26.51 21.49-48 48-48v0h160c26.51 0 48 21.49 48 48v0 16h64c26.51 0 48-21.49 48-48v0-720h-480zM704 32h-384c-20.72 0.060-38.347 13.24-45.014 31.666l-0.106 0.334h474.24c-6.773-18.76-24.4-31.94-45.113-32h-0.007zM704 384h-128c-8.837 0-16-7.163-16-16v0-64c0-8.837 7.163-16 16-16v0h128c8.837 0 16 7.163 16 16v0 64c0 8.837-7.163 16-16 16v0zM688 320h-96v32h96zM704 256h-128c-8.837 0-16-7.163-16-16v0-64c0-8.837 7.163-16 16-16v0h128c8.837 0 16 7.163 16 16v0 64c0 8.837-7.163 16-16 16v0zM688 192h-96v32h96zM352 384h-32c-8.837 0-16-7.163-16-16s7.163-16 16-16v0h32c8.837 0 16 7.163 16 16s-7.163 16-16 16v0zM352 320h-32c-8.837 0-16-7.163-16-16s7.163-16 16-16v0h32c8.837 0 16 7.163 16 16s-7.163 16-16 16v0zM512 384h-96c-8.837 0-16-7.163-16-16s7.163-16 16-16v0h96c8.837 0 16 7.163 16 16s-7.163 16-16 16v0zM512 320h-96c-8.837 0-16-7.163-16-16s7.163-16 16-16v0h96c8.837 0 16 7.163 16 16s-7.163 16-16 16v0zM352 256h-32c-8.837 0-16-7.163-16-16s7.163-16 16-16v0h32c8.837 0 16 7.163 16 16s-7.163 16-16 16v0zM352 192h-32c-8.837 0-16-7.163-16-16s7.163-16 16-16v0h32c8.837 0 16 7.163 16 16s-7.163 16-16 16v0zM512 256h-96c-8.837 0-16-7.163-16-16s7.163-16 16-16v0h96c8.837 0 16 7.163 16 16s-7.163 16-16 16v0zM512 192h-96c-8.837 0-16-7.163-16-16s7.163-16 16-16v0h96c8.837 0 16 7.163 16 16s-7.163 16-16 16v0zM704 448h-48v217.44l16 16v-9.44c0-8.837 7.163-16 16-16s16 7.163 16 16v0 48c0 8.837-7.163 16-16 16v0h-48c-8.837 0-16-7.163-16-16s7.163-16 16-16v0h9.44l-105.44-105.44-52.64 52.8c-2.9 2.923-6.919 4.733-11.36 4.733s-8.46-1.81-11.359-4.732l-144.001-144.001c-2.907-2.907-4.705-6.924-4.705-11.36 0-8.873 7.193-16.065 16.065-16.065 4.436 0 8.453 1.798 11.36 4.705v0l20.64 20.8v-57.44h-48c-8.837 0-16-7.163-16-16s7.163-16 16-16v0h384c8.837 0 16 7.163 16 16s-7.163 16-16 16v0zM624 448h-32v153.44l32 32zM555.36 564.64l4.64 4.8v-121.44h-32v121.44l4.64-4.8c2.9-2.923 6.919-4.733 11.36-4.733s8.46 1.81 11.359 4.732l0.001 0.001zM480 617.44l16-16v-153.44h-32v153.44zM400 537.44l32 32v-121.44h-32z" />
<glyph unicode="&#xe928;" glyph-name="envelope-1" d="M98.284 602.281c12.953-9.141 52-36.289 117.142-81.429 65.144-45.141 115.048-79.898 149.715-104.274 3.809-2.672 11.901-8.48 24.28-17.433 12.381-8.959 22.669-16.198 30.855-21.72 8.192-5.52 18.095-11.713 29.72-18.568 11.62-6.849 22.574-12.001 32.86-15.411 10.288-3.439 19.81-5.142 28.571-5.142h1.151c8.76 0 18.287 1.705 28.575 5.142 10.282 3.41 21.246 8.568 32.856 15.411 11.616 6.863 21.52 13.050 29.712 18.568 8.192 5.522 18.471 12.761 30.857 21.72 12.377 8.961 20.479 14.761 24.288 17.433 35.042 24.376 124.193 86.283 267.425 185.716 27.808 19.42 51.041 42.853 69.705 70.283 18.678 27.418 28.006 56.181 28.006 86.273 0 25.146-9.053 46.672-27.15 64.575-18.095 17.907-39.527 26.856-64.281 26.856h-841.144c-29.331 0-51.904-9.903-67.713-29.71-15.808-19.81-23.711-44.573-23.711-74.284 0-24 10.48-50.007 31.429-78.005 20.947-28 43.24-50.003 66.855-66zM966.85 541.144c-124.939-84.564-219.809-150.284-284.562-197.146-21.714-15.994-39.329-28.479-52.857-37.425-13.528-8.953-31.519-18.095-53.999-27.424-22.472-9.343-43.416-14-62.848-14h-1.157c-19.428 0-40.383 4.657-62.856 14-22.472 9.329-40.476 18.471-53.999 27.424-13.52 8.947-31.141 21.432-52.853 37.425-51.432 37.712-146.097 103.436-283.999 197.146-21.72 14.467-40.958 31.049-57.72 49.712v-453.701c0-25.158 8.949-46.672 26.856-64.577 17.903-17.911 39.431-26.864 64.575-26.864h841.146c25.138 0 46.664 8.953 64.569 26.864 17.911 17.911 26.856 39.417 26.856 64.577v453.701c-16.384-18.277-35.426-34.859-57.152-49.712z" />
<glyph unicode="&#xe929;" glyph-name="location" d="M487.038-50.64c5.564-8.346 14.932-13.36 24.962-13.36s19.398 5.012 24.962 13.36c70.998 106.494 175.572 238.016 248.444 371.778 58.268 106.952 86.594 198.17 86.594 278.862 0 198.504-161.496 360-360 360s-360-161.496-360-360c0-80.692 28.326-171.91 86.594-278.862 72.818-133.66 177.592-265.504 248.444-371.778zM512 900c165.42 0 300-134.58 300-300 0-70.408-25.934-152.236-79.282-250.158-62.814-115.298-152.45-232.256-220.718-330.58-68.258 98.31-157.9 215.276-220.718 330.58-53.348 97.922-79.282 179.75-79.282 250.158 0 165.42 134.58 300 300 300zM512 420c99.252 0 180 80.748 180 180s-80.748 180-180 180-180-80.748-180-180 80.748-180 180-180zM512 720c66.168 0 120-53.832 120-120s-53.832-120-120-120-120 53.832-120 120 53.832 120 120 120z" />
<glyph unicode="&#xe92a;" glyph-name="mobile-phone" d="M732 960h-440c-41.356 0-75-33.644-75-75v-874c0-41.356 33.644-75 75-75h440c41.356 0 75 33.644 75 75v874c0 41.356-33.644 75-75 75zM777 146h-425c-8.284 0-15-6.716-15-15s6.716-15 15-15h425v-105c0-24.814-20.186-45-45-45h-440c-24.814 0-45 20.186-45 45v105h45c8.284 0 15 6.716 15 15s-6.716 15-15 15h-45v664h530v-664zM777 840h-530v45c0 24.814 20.186 45 45 45h440c24.814 0 45-20.186 45-45v-45zM572 900h-60c-8.284 0-15-6.716-15-15s6.716-15 15-15h60c8.284 0 15 6.716 15 15s-6.716 15-15 15zM512 86c-24.814 0-45-20.186-45-45s20.186-45 45-45 45 20.186 45 45c0 24.814-20.186 45-45 45zM512 26c-8.272 0-15 6.728-15 15s6.728 15 15 15 15-6.728 15-15-6.728-15-15-15zM467 885c0-8.284-6.716-15-15-15s-15 6.716-15 15c0 8.284 6.716 15 15 15s15-6.716 15-15z" />
<glyph unicode="&#xe92b;" glyph-name="envelope-2" d="M938.666 832h-853.332c-47.064 0-85.334-38.27-85.334-85.334v-597.334c0-47.062 38.27-85.332 85.334-85.332h853.334c47.062 0 85.332 38.27 85.332 85.334v597.332c0 47.064-38.27 85.334-85.334 85.334zM85.334 789.334h853.334c3.144 0 5.914-1.146 8.864-1.794-73.878-67.614-318.846-291.718-404.572-368.956-6.708-6.042-17.52-13.25-30.958-13.25s-24.25 7.208-30.98 13.27c-85.718 77.226-330.7 301.342-404.566 368.932 2.956 0.648 5.732 1.798 8.878 1.798zM42.666 149.334v597.332c0 4.18 1.26 7.972 2.388 11.792 56.544-51.752 227.472-208.12 338.304-308.906-110.472-94.894-281.444-256.99-338.438-311.338-1.006 3.628-2.254 7.176-2.254 11.12zM938.666 106.666h-853.332c-3.408 0-6.438 1.188-9.62 1.948 58.894 56.144 230.954 219.172 339.484 312.018 14.148-12.834 27.072-24.536 37.26-33.716 17.584-15.876 38.166-24.25 59.542-24.25s41.958 8.376 59.52 24.23c10.192 9.184 23.126 20.896 37.282 33.736 108.536-92.836 280.572-255.852 339.484-312.018-3.182-0.76-6.208-1.948-9.62-1.948zM981.334 149.334c0-3.942-1.248-7.492-2.252-11.12-57.016 54.376-227.968 216.454-338.438 311.336 110.836 100.786 281.738 257.14 338.302 308.912 1.128-3.82 2.388-7.614 2.388-11.794v-597.334z" />
</font>
</defs>
</svg>
